<svg version="1" xmlns="http://www.w3.org/2000/svg" width="933.333" height="933.333" viewBox="0 0 700.000000 700.000000"><path d="M259.5 75.2c-7.2 12.2-13.1 22.7-13.3 23.5-.2.7-.8 1.3-1.3 1.3s-.9.4-.9.9c0 .6-2.9 5.8-6.4 11.8-3.5 5.9-15.6 26.5-26.8 45.8-11.3 19.2-38.5 65.8-60.5 103.5s-41 70.1-42.1 72.1c-1.1 2-4 6.9-6.4 11-7.8 13.2-24 40.7-50.1 85.4-9.6 16.5-25 42.8-34.2 58.5C8.3 504.7.8 518.2.8 519.1c0 .8 3.8 8 8.5 16 4.6 7.9 10.8 18.4 13.6 23.4 2.8 4.9 5.6 9.7 6.1 10.5.5.8 6.6 11.4 13.6 23.5s15.9 27.4 19.7 34c3.8 6.6 8.3 14.5 10 17.5 1.7 3 3.8 6.8 4.8 8.4l1.7 2.8h135.9c101.4-.1 135.7-.4 135.5-1.2-.1-.6-15.2-26.9-33.4-58.3-18.2-31.5-34.3-59.3-35.7-61.8-1.4-2.5-3.9-6.9-5.6-9.7l-3-5.2H172l4-6.8a491 491 0 0 1 5-8.2c.5-.8 2.6-4.4 4.6-8 2.1-3.6 4.5-7.6 5.5-9 .9-1.4 9.9-16.6 20-33.8 10.1-17.2 19.2-32.5 20.1-34 1-1.5 2.1-3.4 2.5-4.2.6-1.4 18.9-32.3 30-51 2.5-4.1 5.7-9.5 7.1-12 1.3-2.5 2.8-5 3.2-5.5.4-.6 1.7-2.6 2.8-4.5 1-1.9 5.5-9.5 9.8-16.8 4.4-7.3 8.7-14.7 9.8-16.5 1-1.8 5-8.6 9-15.2 3.9-6.6 7.5-12.8 8.1-13.7.5-1 5.2-8.8 10.3-17.5 5.1-8.7 9.7-16.5 10.2-17.3 3.2-5.3 9.5-15.8 10.4-17.5 6.8-12.2 14-23.5 14.6-22.8.6.6 15.8 27.2 28.8 50.3 1.3 2.5 4.9 8.7 7.8 13.8 3 5.2 5.4 9.5 5.4 9.7 0 .2 1.9 3.6 4.3 7.7 2.4 4 5.5 9.3 6.9 11.8 1.4 2.5 7.1 12.6 12.8 22.5 5.6 9.9 11.5 20.2 13 23 1.5 2.7 5.9 10.6 9.9 17.4 3.9 6.8 7.1 12.5 7.1 12.7 0 .3 1.1 2.1 2.3 4.2 1.3 2 3.5 5.7 4.9 8.2 1.4 2.5 11.1 19.6 21.5 38 10.5 18.4 20.3 35.7 21.7 38.3 1.5 2.6 5.6 9.8 9.2 15.9 3.5 6.1 6.4 11.2 6.4 11.4 0 .4 8.4 15 10 17.4.6.8 1.3 2.2 1.7 3 .4.8 1.7 3.2 3 5.2l2.3 3.8h-68c-37.4 0-68 .3-68 .6 0 .6 7.4 13.4 10 17.4.6.8 1.3 2.2 1.7 3 .4.8 1.7 3.2 3 5.3 1.3 2.1 3.3 5.5 4.5 7.5 1.8 3.2 5.6 9.9 15.9 27.8 3.7 6.4 21.9 37.7 22.9 39.4 4.1 6.7 9.8 16.7 10.1 17.5.2.5 2.6 4.7 5.2 9.2 4.1 7 5.3 8.3 7.5 8.4 11.4.2 155.4.1 155.6-.2.3-.4 7.4-13.9 19.8-37.9 5.3-10.1 12.7-24 18.8-35.5 2.1-3.9 7-13.3 11-21 4-7.7 8.4-15.9 9.6-18.3 2.3-4 2.4-5.2 2.4-22.5 0-15.9-.2-18.6-1.8-21.2-1-1.7-3.2-5.5-4.9-8.5-1.7-3-13.1-23.1-25.3-44.5-12.3-21.5-23.4-41-24.8-43.5-1.4-2.5-11.4-20-22.2-39-22.2-38.8-24.3-42.7-27.8-49-1.3-2.4-3.2-5.7-4.3-7.1-1-1.5-1.9-3-1.9-3.3 0-.3-1.3-2.7-2.9-5.4-1.6-2.7-4.3-7.4-5.9-10.3-1.6-3-10.3-18.2-19.2-33.9-9-15.7-17.4-30.5-18.8-33-1.4-2.5-18.1-31.7-37-65-19-33.3-35.3-62-36.4-63.8-1-1.8-3.7-6.6-6-10.5-2.2-4-5.5-9.7-7.2-12.7-1.7-3.1-4.4-7.9-6.1-10.8l-3-5.2h-172l-13 22.2z"/></svg>