<svg width="376" height="109" viewBox="0 0 376 109" fill="none" xmlns="http://www.w3.org/2000/svg">
<path fill-rule="evenodd" clip-rule="evenodd" d="M122 78.7867L75.7624 0L60.987 25.6028L91.6848 78.7867H122Z" fill="white"/>
<path d="M29.7378 77.7867H1.74636L46.8103 1H74.0594L29.7378 77.7867Z" fill="#1C1A1A" stroke="white" stroke-width="2"/>
<path fill-rule="evenodd" clip-rule="evenodd" d="M1.1958 78.8875L46.7107 1.1958H73.6158L28.7572 78.8875H1.1958Z" fill="#1C1A1A"/>
<path fill-rule="evenodd" clip-rule="evenodd" d="M47.4987 78.9244H0L15.6988 104.78H62.2173L47.4987 78.9244Z" fill="white"/>
<path d="M82.9645 103.783L69.2899 79.9244H119.891L106.382 103.783H82.9645Z" fill="#1C1A1A" stroke="white" stroke-width="2"/>
<path fill-rule="evenodd" clip-rule="evenodd" d="M120.072 80.1202H69.9558L83.4874 103.692H106.704L120.072 80.1202Z" fill="#1C1A1A"/>
<path d="M153.56 99.584C153.56 100.976 153.284 102.152 152.732 103.112C152.18 104.048 151.448 104.804 150.536 105.38C149.624 105.956 148.58 106.376 147.404 106.64C146.252 106.88 145.064 107 143.84 107H133.688V81.512H143.84C144.824 81.512 145.832 81.62 146.864 81.836C147.896 82.028 148.832 82.376 149.672 82.88C150.512 83.36 151.196 84.02 151.724 84.86C152.252 85.7 152.516 86.768 152.516 88.064C152.516 89.48 152.132 90.656 151.364 91.592C150.596 92.504 149.588 93.164 148.34 93.572V93.644C149.06 93.764 149.732 93.992 150.356 94.328C151.004 94.64 151.556 95.048 152.012 95.552C152.492 96.056 152.864 96.644 153.128 97.316C153.416 97.988 153.56 98.744 153.56 99.584ZM146.576 88.892C146.576 88.028 146.24 87.404 145.568 87.02C144.92 86.612 143.948 86.408 142.652 86.408H139.628V91.664H142.94C144.092 91.664 144.98 91.436 145.604 90.98C146.252 90.5 146.576 89.804 146.576 88.892ZM147.404 99.008C147.404 97.952 147.008 97.22 146.216 96.812C145.424 96.404 144.368 96.2 143.048 96.2H139.628V102.032H143.084C143.564 102.032 144.056 101.996 144.56 101.924C145.088 101.828 145.556 101.672 145.964 101.456C146.396 101.24 146.744 100.94 147.008 100.556C147.272 100.148 147.404 99.632 147.404 99.008ZM168.277 86.768V107H162.121V86.768H154.921V81.512H175.477V86.768H168.277ZM204.595 94.148C204.595 96.164 204.247 98.012 203.551 99.692C202.855 101.348 201.883 102.776 200.635 103.976C199.411 105.152 197.947 106.064 196.243 106.712C194.539 107.36 192.691 107.684 190.699 107.684C188.707 107.684 186.859 107.36 185.155 106.712C183.475 106.064 182.011 105.152 180.763 103.976C179.539 102.776 178.579 101.348 177.883 99.692C177.187 98.012 176.839 96.164 176.839 94.148C176.839 92.108 177.187 90.272 177.883 88.64C178.579 86.984 179.539 85.58 180.763 84.428C182.011 83.276 183.475 82.388 185.155 81.764C186.859 81.14 188.707 80.828 190.699 80.828C192.691 80.828 194.539 81.14 196.243 81.764C197.947 82.388 199.411 83.276 200.635 84.428C201.883 85.58 202.855 86.984 203.551 88.64C204.247 90.272 204.595 92.108 204.595 94.148ZM198.007 94.148C198.007 93.044 197.827 92.012 197.467 91.052C197.107 90.092 196.603 89.276 195.955 88.604C195.331 87.908 194.563 87.368 193.651 86.984C192.763 86.576 191.779 86.372 190.699 86.372C189.619 86.372 188.635 86.576 187.747 86.984C186.859 87.368 186.091 87.908 185.443 88.604C184.795 89.276 184.291 90.092 183.931 91.052C183.595 92.012 183.427 93.044 183.427 94.148C183.427 95.3 183.607 96.368 183.967 97.352C184.327 98.312 184.819 99.14 185.443 99.836C186.091 100.532 186.859 101.084 187.747 101.492C188.635 101.876 189.619 102.068 190.699 102.068C191.779 102.068 192.763 101.876 193.651 101.492C194.539 101.084 195.307 100.532 195.955 99.836C196.603 99.14 197.107 98.312 197.467 97.352C197.827 96.368 198.007 95.3 198.007 94.148ZM227.72 89.36C227.72 90.848 227.444 92.108 226.892 93.14C226.34 94.148 225.596 94.964 224.66 95.588C223.724 96.212 222.644 96.668 221.42 96.956C220.196 97.244 218.924 97.388 217.604 97.388H214.544V107H208.388V81.512H217.748C219.14 81.512 220.436 81.656 221.636 81.944C222.86 82.208 223.916 82.652 224.804 83.276C225.716 83.876 226.424 84.68 226.928 85.688C227.456 86.672 227.72 87.896 227.72 89.36ZM221.564 89.396C221.564 88.796 221.444 88.304 221.204 87.92C220.964 87.536 220.64 87.236 220.232 87.02C219.824 86.804 219.356 86.66 218.828 86.588C218.324 86.516 217.796 86.48 217.244 86.48H214.544V92.492H217.136C217.712 92.492 218.264 92.444 218.792 92.348C219.32 92.252 219.788 92.084 220.196 91.844C220.628 91.604 220.964 91.292 221.204 90.908C221.444 90.5 221.564 89.996 221.564 89.396ZM253.584 103.472C252.456 104.768 251.064 105.8 249.408 106.568C247.752 107.312 245.844 107.684 243.684 107.684C241.716 107.684 239.892 107.36 238.212 106.712C236.556 106.064 235.116 105.152 233.892 103.976C232.668 102.776 231.708 101.348 231.012 99.692C230.316 98.036 229.968 96.212 229.968 94.22C229.968 92.18 230.316 90.332 231.012 88.676C231.732 87.02 232.716 85.616 233.964 84.464C235.212 83.288 236.676 82.388 238.356 81.764C240.036 81.14 241.848 80.828 243.792 80.828C245.592 80.828 247.356 81.152 249.084 81.8C250.836 82.424 252.252 83.348 253.332 84.572L249.156 88.748C248.58 87.956 247.824 87.368 246.888 86.984C245.952 86.6 244.992 86.408 244.008 86.408C242.928 86.408 241.932 86.612 241.02 87.02C240.132 87.404 239.364 87.944 238.716 88.64C238.068 89.336 237.564 90.164 237.204 91.124C236.844 92.06 236.664 93.092 236.664 94.22C236.664 95.372 236.844 96.428 237.204 97.388C237.564 98.348 238.056 99.176 238.68 99.872C239.328 100.544 240.096 101.072 240.984 101.456C241.872 101.84 242.844 102.032 243.9 102.032C245.124 102.032 246.192 101.792 247.104 101.312C248.016 100.832 248.748 100.208 249.3 99.44L253.584 103.472ZM255.962 107V81.512H273.098V86.732H261.902V91.52H272.486V96.452H261.902V101.744H273.746V107H255.962ZM296.901 89.36C296.901 90.848 296.625 92.108 296.073 93.14C295.521 94.148 294.777 94.964 293.841 95.588C292.905 96.212 291.825 96.668 290.601 96.956C289.377 97.244 288.105 97.388 286.785 97.388H283.725V107H277.569V81.512H286.929C288.321 81.512 289.617 81.656 290.817 81.944C292.041 82.208 293.097 82.652 293.985 83.276C294.897 83.876 295.605 84.68 296.109 85.688C296.637 86.672 296.901 87.896 296.901 89.36ZM290.745 89.396C290.745 88.796 290.625 88.304 290.385 87.92C290.145 87.536 289.821 87.236 289.413 87.02C289.005 86.804 288.537 86.66 288.009 86.588C287.505 86.516 286.977 86.48 286.425 86.48H283.725V92.492H286.317C286.893 92.492 287.445 92.444 287.973 92.348C288.501 92.252 288.969 92.084 289.377 91.844C289.809 91.604 290.145 91.292 290.385 90.908C290.625 90.5 290.745 89.996 290.745 89.396ZM320.209 99.584C320.209 100.976 319.933 102.152 319.381 103.112C318.829 104.048 318.097 104.804 317.185 105.38C316.273 105.956 315.229 106.376 314.053 106.64C312.901 106.88 311.713 107 310.489 107H300.337V81.512H310.489C311.473 81.512 312.481 81.62 313.513 81.836C314.545 82.028 315.481 82.376 316.321 82.88C317.161 83.36 317.845 84.02 318.373 84.86C318.901 85.7 319.165 86.768 319.165 88.064C319.165 89.48 318.781 90.656 318.013 91.592C317.245 92.504 316.237 93.164 314.989 93.572V93.644C315.709 93.764 316.381 93.992 317.005 94.328C317.653 94.64 318.205 95.048 318.661 95.552C319.141 96.056 319.513 96.644 319.777 97.316C320.065 97.988 320.209 98.744 320.209 99.584ZM313.225 88.892C313.225 88.028 312.889 87.404 312.217 87.02C311.569 86.612 310.597 86.408 309.301 86.408H306.277V91.664H309.589C310.741 91.664 311.629 91.436 312.253 90.98C312.901 90.5 313.225 89.804 313.225 88.892ZM314.053 99.008C314.053 97.952 313.657 97.22 312.865 96.812C312.073 96.404 311.017 96.2 309.697 96.2H306.277V102.032H309.733C310.213 102.032 310.705 101.996 311.209 101.924C311.737 101.828 312.205 101.672 312.613 101.456C313.045 101.24 313.393 100.94 313.657 100.556C313.921 100.148 314.053 99.632 314.053 99.008ZM330.246 98.504L340.83 81.512H347.778V107H341.658V90.224H341.55L330.93 107H324.018V81.512H330.138V98.504H330.246ZM375.19 103.472C374.062 104.768 372.67 105.8 371.014 106.568C369.358 107.312 367.45 107.684 365.29 107.684C363.322 107.684 361.498 107.36 359.818 106.712C358.162 106.064 356.722 105.152 355.498 103.976C354.274 102.776 353.314 101.348 352.618 99.692C351.922 98.036 351.574 96.212 351.574 94.22C351.574 92.18 351.922 90.332 352.618 88.676C353.338 87.02 354.322 85.616 355.57 84.464C356.818 83.288 358.282 82.388 359.962 81.764C361.642 81.14 363.454 80.828 365.398 80.828C367.198 80.828 368.962 81.152 370.69 81.8C372.442 82.424 373.858 83.348 374.938 84.572L370.762 88.748C370.186 87.956 369.43 87.368 368.494 86.984C367.558 86.6 366.598 86.408 365.614 86.408C364.534 86.408 363.538 86.612 362.626 87.02C361.738 87.404 360.97 87.944 360.322 88.64C359.674 89.336 359.17 90.164 358.81 91.124C358.45 92.06 358.27 93.092 358.27 94.22C358.27 95.372 358.45 96.428 358.81 97.388C359.17 98.348 359.662 99.176 360.286 99.872C360.934 100.544 361.702 101.072 362.59 101.456C363.478 101.84 364.45 102.032 365.506 102.032C366.73 102.032 367.798 101.792 368.71 101.312C369.622 100.832 370.354 100.208 370.906 99.44L375.19 103.472Z" fill="white"/>
</svg>
