<svg width="389" height="107" viewBox="0 0 389 107" fill="none" xmlns="http://www.w3.org/2000/svg">
<path fill-rule="evenodd" clip-rule="evenodd" d="M122.454 79.3613L76.0549 0L61.228 25.7895L92.0329 79.3613H122.454Z" fill="#615E5D"/>
<path fill-rule="evenodd" clip-rule="evenodd" d="M0 79.3615L46.3991 0.000244141H76.0559L30.4211 79.3615H0Z" fill="#F48000"/>
<path fill-rule="evenodd" clip-rule="evenodd" d="M47.669 79.3616H0.00439453L15.758 105.405H62.4389L47.669 79.3616Z" fill="#615E5D"/>
<path fill-rule="evenodd" clip-rule="evenodd" d="M122.457 79.3607H68.226L83.0987 105.408H107.765L122.457 79.3607Z" fill="#F48000"/>
<path d="M162.126 97.84C162.126 99.2591 161.845 100.458 161.282 101.437C160.719 102.391 159.973 103.162 159.043 103.749C158.114 104.336 157.049 104.764 155.85 105.033C154.676 105.278 153.465 105.4 152.217 105.4H141.868V79.4166H152.217C153.22 79.4166 154.248 79.5267 155.3 79.7469C156.352 79.9426 157.306 80.2974 158.163 80.8112C159.019 81.3005 159.716 81.9734 160.254 82.8297C160.793 83.686 161.062 84.7748 161.062 86.096C161.062 87.5395 160.67 88.7384 159.887 89.6926C159.105 90.6223 158.077 91.2952 156.805 91.7111V91.7845C157.539 91.9068 158.224 92.1393 158.86 92.4818C159.52 92.7999 160.083 93.2158 160.548 93.7296C161.037 94.2434 161.417 94.8428 161.686 95.5279C161.979 96.213 162.126 96.9837 162.126 97.84ZM155.006 86.9401C155.006 86.0593 154.664 85.4232 153.979 85.0317C153.318 84.6158 152.327 84.4078 151.006 84.4078H147.923V89.766H151.3C152.474 89.766 153.379 89.5336 154.015 89.0687C154.676 88.5794 155.006 87.8698 155.006 86.9401ZM155.85 97.2528C155.85 96.1763 155.447 95.43 154.639 95.0141C153.832 94.5982 152.755 94.3902 151.41 94.3902H147.923V100.336H151.446C151.936 100.336 152.437 100.299 152.951 100.226C153.489 100.128 153.967 99.9686 154.382 99.7484C154.823 99.5282 155.178 99.2224 155.447 98.8309C155.716 98.415 155.85 97.8889 155.85 97.2528ZM177.13 84.7748V105.4H170.854V84.7748H163.514V79.4166H184.47V84.7748H177.13ZM214.154 92.2983C214.154 94.3535 213.799 96.2374 213.09 97.9501C212.38 99.6383 211.389 101.094 210.117 102.317C208.869 103.516 207.377 104.446 205.64 105.107C203.902 105.767 202.018 106.098 199.988 106.098C197.957 106.098 196.073 105.767 194.336 105.107C192.623 104.446 191.131 103.516 189.859 102.317C188.611 101.094 187.632 99.6383 186.923 97.9501C186.213 96.2374 185.858 94.3535 185.858 92.2983C185.858 90.2186 186.213 88.3469 186.923 86.6832C187.632 84.995 188.611 83.5637 189.859 82.3893C191.131 81.2149 192.623 80.3096 194.336 79.6735C196.073 79.0374 197.957 78.7193 199.988 78.7193C202.018 78.7193 203.902 79.0374 205.64 79.6735C207.377 80.3096 208.869 81.2149 210.117 82.3893C211.389 83.5637 212.38 84.995 213.09 86.6832C213.799 88.3469 214.154 90.2186 214.154 92.2983ZM207.438 92.2983C207.438 91.1728 207.254 90.1208 206.887 89.1421C206.52 88.1634 206.007 87.3316 205.346 86.6465C204.71 85.937 203.927 85.3865 202.997 84.995C202.092 84.5791 201.089 84.3711 199.988 84.3711C198.887 84.3711 197.884 84.5791 196.978 84.995C196.073 85.3865 195.29 85.937 194.63 86.6465C193.969 87.3316 193.455 88.1634 193.088 89.1421C192.746 90.1208 192.574 91.1728 192.574 92.2983C192.574 93.4727 192.758 94.5615 193.125 95.5646C193.492 96.5433 193.993 97.3874 194.63 98.0969C195.29 98.8064 196.073 99.3692 196.978 99.7851C197.884 100.177 198.887 100.372 199.988 100.372C201.089 100.372 202.092 100.177 202.997 99.7851C203.902 99.3692 204.685 98.8064 205.346 98.0969C206.007 97.3874 206.52 96.5433 206.887 95.5646C207.254 94.5615 207.438 93.4727 207.438 92.2983ZM237.729 87.4172C237.729 88.9341 237.447 90.2186 236.885 91.2707C236.322 92.2983 235.563 93.1302 234.609 93.7663C233.655 94.4024 232.554 94.8673 231.306 95.1609C230.058 95.4545 228.762 95.6013 227.416 95.6013H224.296V105.4H218.021V79.4166H227.563C228.982 79.4166 230.303 79.5634 231.526 79.857C232.774 80.1261 233.851 80.5788 234.756 81.2149C235.686 81.8266 236.407 82.6462 236.921 83.6738C237.46 84.6769 237.729 85.9247 237.729 87.4172ZM231.453 87.4539C231.453 86.8422 231.331 86.3407 231.086 85.9492C230.841 85.5577 230.511 85.2519 230.095 85.0317C229.679 84.8115 229.202 84.6647 228.664 84.5913C228.15 84.5179 227.612 84.4812 227.049 84.4812H224.296V90.6101H226.939C227.526 90.6101 228.089 90.5612 228.627 90.4633C229.165 90.3654 229.642 90.1942 230.058 89.9495C230.499 89.7048 230.841 89.3868 231.086 88.9953C231.331 88.5794 231.453 88.0656 231.453 87.4539ZM264.095 101.804C262.945 103.125 261.526 104.177 259.838 104.96C258.15 105.718 256.204 106.098 254.002 106.098C251.996 106.098 250.137 105.767 248.424 105.107C246.736 104.446 245.268 103.516 244.02 102.317C242.772 101.094 241.794 99.6383 241.084 97.9501C240.374 96.2619 240.02 94.4024 240.02 92.3717C240.02 90.292 240.374 88.4081 241.084 86.7199C241.818 85.0317 242.821 83.6004 244.093 82.426C245.366 81.2271 246.858 80.3096 248.571 79.6735C250.283 79.0374 252.131 78.7193 254.113 78.7193C255.948 78.7193 257.746 79.0496 259.507 79.7102C261.293 80.3463 262.737 81.2883 263.838 82.5361L259.581 86.7933C258.994 85.9859 258.223 85.3865 257.269 84.995C256.315 84.6035 255.336 84.4078 254.333 84.4078C253.232 84.4078 252.216 84.6158 251.287 85.0317C250.381 85.4232 249.598 85.9737 248.938 86.6832C248.277 87.3927 247.763 88.2368 247.396 89.2155C247.029 90.1697 246.846 91.2218 246.846 92.3717C246.846 93.5461 247.029 94.6226 247.396 95.6013C247.763 96.58 248.265 97.4241 248.901 98.1336C249.562 98.8187 250.345 99.3569 251.25 99.7484C252.155 100.14 253.146 100.336 254.223 100.336C255.47 100.336 256.559 100.091 257.489 99.6016C258.419 99.1123 259.165 98.4761 259.728 97.6932L264.095 101.804ZM266.52 105.4V79.4166H283.989V84.7381H272.575V89.6192H283.365V94.6471H272.575V100.042H284.649V105.4H266.52ZM308.255 87.4172C308.255 88.9341 307.973 90.2186 307.411 91.2707C306.848 92.2983 306.089 93.1302 305.135 93.7663C304.181 94.4024 303.08 94.8673 301.832 95.1609C300.584 95.4545 299.288 95.6013 297.942 95.6013H294.823V105.4H288.547V79.4166H298.089C299.508 79.4166 300.829 79.5634 302.052 79.857C303.3 80.1261 304.377 80.5788 305.282 81.2149C306.212 81.8266 306.934 82.6462 307.447 83.6738C307.986 84.6769 308.255 85.9247 308.255 87.4172ZM301.979 87.4539C301.979 86.8422 301.857 86.3407 301.612 85.9492C301.367 85.5577 301.037 85.2519 300.621 85.0317C300.205 84.8115 299.728 84.6647 299.19 84.5913C298.676 84.5179 298.138 84.4812 297.575 84.4812H294.823V90.6101H297.465C298.052 90.6101 298.615 90.5612 299.153 90.4633C299.691 90.3654 300.169 90.1942 300.584 89.9495C301.025 89.7048 301.367 89.3868 301.612 88.9953C301.857 88.5794 301.979 88.0656 301.979 87.4539ZM332.015 97.84C332.015 99.2591 331.734 100.458 331.171 101.437C330.609 102.391 329.862 103.162 328.933 103.749C328.003 104.336 326.939 104.764 325.74 105.033C324.565 105.278 323.354 105.4 322.106 105.4H311.757V79.4166H322.106C323.109 79.4166 324.137 79.5267 325.189 79.7469C326.241 79.9426 327.195 80.2974 328.052 80.8112C328.908 81.3005 329.605 81.9734 330.144 82.8297C330.682 83.686 330.951 84.7748 330.951 86.096C330.951 87.5395 330.56 88.7384 329.777 89.6926C328.994 90.6223 327.966 91.2952 326.694 91.7111V91.7845C327.428 91.9068 328.113 92.1393 328.749 92.4818C329.41 92.7999 329.972 93.2158 330.437 93.7296C330.927 94.2434 331.306 94.8428 331.575 95.5279C331.869 96.213 332.015 96.9837 332.015 97.84ZM324.896 86.9401C324.896 86.0593 324.553 85.4232 323.868 85.0317C323.207 84.6158 322.216 84.4078 320.895 84.4078H317.812V89.766H321.189C322.363 89.766 323.269 89.5336 323.905 89.0687C324.565 88.5794 324.896 87.8698 324.896 86.9401ZM325.74 97.2528C325.74 96.1763 325.336 95.43 324.529 95.0141C323.721 94.5982 322.645 94.3902 321.299 94.3902H317.812V100.336H321.336C321.825 100.336 322.327 100.299 322.84 100.226C323.379 100.128 323.856 99.9686 324.272 99.7484C324.712 99.5282 325.067 99.2224 325.336 98.8309C325.605 98.415 325.74 97.8889 325.74 97.2528ZM342.248 96.739L353.038 79.4166H360.121V105.4H353.882V88.298H353.772L342.945 105.4H335.899V79.4166H342.138V96.739H342.248ZM388.066 101.804C386.916 103.125 385.497 104.177 383.809 104.96C382.12 105.718 380.175 106.098 377.973 106.098C375.967 106.098 374.108 105.767 372.395 105.107C370.707 104.446 369.239 103.516 367.991 102.317C366.743 101.094 365.764 99.6383 365.055 97.9501C364.345 96.2619 363.991 94.4024 363.991 92.3717C363.991 90.292 364.345 88.4081 365.055 86.7199C365.789 85.0317 366.792 83.6004 368.064 82.426C369.337 81.2271 370.829 80.3096 372.542 79.6735C374.254 79.0374 376.102 78.7193 378.083 78.7193C379.918 78.7193 381.717 79.0496 383.478 79.7102C385.264 80.3463 386.708 81.2883 387.809 82.5361L383.552 86.7933C382.964 85.9859 382.194 85.3865 381.24 84.995C380.285 84.6035 379.307 84.4078 378.304 84.4078C377.203 84.4078 376.187 84.6158 375.257 85.0317C374.352 85.4232 373.569 85.9737 372.909 86.6832C372.248 87.3927 371.734 88.2368 371.367 89.2155C371 90.1697 370.817 91.2218 370.817 92.3717C370.817 93.5461 371 94.6226 371.367 95.6013C371.734 96.58 372.236 97.4241 372.872 98.1336C373.533 98.8187 374.315 99.3569 375.221 99.7484C376.126 100.14 377.117 100.336 378.193 100.336C379.441 100.336 380.53 100.091 381.46 99.6016C382.389 99.1123 383.136 98.4761 383.698 97.6932L388.066 101.804Z" fill="black"/>
</svg>
