<?xml version="1.0" encoding="utf-8"?>
<!-- Generator: Adobe Illustrator 19.0.0, SVG Export Plug-In . SVG Version: 6.00 Build 0)  -->
<svg version="1.1" id="Layer_1" xmlns="http://www.w3.org/2000/svg" x="0px" y="0px"
     width="20px" height="16px" viewBox="-297 388 20 16" style="enable-background:new -297 388 20 16;"
     xml:space="preserve">
    <path style="fill:#55ACEE" class="st0" d="M-277.8,391.7c-0.7,0.3-1.4,0.5-2.1,0.6c0.8-0.4,1.4-1.1,1.6-2c-0.7,0.4-1.5,0.7-2.4,0.9
	c-0.7-0.7-1.7-1.1-2.7-1.1c-2.1,0-3.7,1.6-3.7,3.5c0,0.3,0,0.5,0.1,0.8c-3.1-0.1-5.9-1.6-7.7-3.7c-0.3,0.5-0.5,1.1-0.5,1.8
	c0,1.2,0.7,2.3,1.7,2.9c-0.6,0-1.2-0.2-1.7-0.4c0,0,0,0,0,0c0,1.7,1.3,3.1,3,3.5c-0.3,0.1-0.6,0.1-1,0.1c-0.2,0-0.5,0-0.7-0.1
	c0.5,1.4,1.9,2.4,3.5,2.5c-1.3,0.9-2.9,1.5-4.6,1.5c-0.3,0-0.6,0-0.9,0c1.7,1,3.6,1.6,5.7,1.6c6.9,0,10.6-5.4,10.6-10.1
	c0-0.2,0-0.3,0-0.5C-278.9,393-278.3,392.4-277.8,391.7z"/>
</svg>
