<svg width="21" height="12" viewBox="0 0 21 12" fill="none" xmlns="http://www.w3.org/2000/svg">
<path fill-rule="evenodd" clip-rule="evenodd" d="M10.0648 11.9498H11.2944C11.2944 11.9498 11.6659 11.9081 11.8555 11.699C12.03 11.5071 12.0244 11.1468 12.0244 11.1468C12.0244 11.1468 12.0004 9.45966 12.7662 9.21123C13.5211 8.9665 14.4904 10.8418 15.5178 11.5628C16.2948 12.1085 16.8852 11.9889 16.8852 11.9889L19.6324 11.9498C19.6324 11.9498 21.0695 11.8592 20.3881 10.7039C20.3322 10.6093 19.9912 9.84917 18.3455 8.28715C16.6229 6.65231 16.8536 6.91674 18.9286 4.08883C20.1923 2.3666 20.6975 1.31517 20.5397 0.864837C20.3892 0.435923 19.4598 0.549291 19.4598 0.549291L16.3666 0.568995C16.3666 0.568995 16.1373 0.537012 15.9672 0.640956C15.801 0.742902 15.6941 0.98049 15.6941 0.98049C15.6941 0.98049 15.2045 2.3132 14.5516 3.4466C13.1742 5.83817 12.6235 5.96439 12.3984 5.8159C11.8748 5.4698 12.0054 4.4255 12.0054 3.68361C12.0054 1.366 12.3492 0.399658 11.336 0.149506C10.9998 0.0664077 10.7524 0.0115799 9.89248 0.00272747C8.7888 -0.00898055 7.85464 0.00615383 7.3257 0.271155C6.97382 0.447346 6.70236 0.839993 6.86769 0.862552C7.07212 0.890537 7.53515 0.990198 7.78063 1.33202C8.0976 1.77292 8.08643 2.76325 8.08643 2.76325C8.08643 2.76325 8.26852 5.4915 7.6611 5.83046C7.24415 6.06291 6.6722 5.58831 5.44425 3.41861C4.81505 2.30721 4.34001 1.07872 4.34001 1.07872C4.34001 1.07872 4.24841 0.849131 4.08503 0.726339C3.88675 0.577562 3.60971 0.530159 3.60971 0.530159L0.670382 0.549862C0.670382 0.549862 0.229133 0.562428 0.0671558 0.758608C-0.0769482 0.933086 0.0557056 1.29404 0.0557056 1.29404C0.0557056 1.29404 2.3569 6.79909 4.9625 9.57332C7.35167 12.1168 10.0648 11.9498 10.0648 11.9498Z" fill="#4D76A1"/>
</svg>
