<svg width="25" height="28" viewBox="0 0 25 28" fill="none" xmlns="http://www.w3.org/2000/svg">
<path d="M11.3733 0.139541C11.187 -0.0465136 10.8852 -0.0465136 10.6989 0.139541L8.6756 2.16262C8.67071 2.16728 8.66884 2.1745 8.66395 2.17962C8.63042 2.21594 8.60271 2.25739 8.58199 2.30233C8.57873 2.30979 8.57384 2.31607 8.57104 2.32422C8.56895 2.32748 8.56709 2.33121 8.56522 2.3347L3.88033 15.0511L1.25741 17.6741C-0.418942 19.3499 -0.419175 22.0676 1.25694 23.744C2.93283 25.4203 5.65053 25.4203 7.32688 23.7445L7.66406 23.4073L10.6989 26.4421C11.6308 27.3719 13.1393 27.3719 14.0712 26.4421L14.7453 25.768C14.9316 25.5817 14.9316 25.2797 14.7453 25.0936L10.5515 20.8998L22.6648 16.4364C22.6686 16.4364 22.6718 16.4322 22.6758 16.4308C22.6795 16.4294 22.6895 16.4231 22.6972 16.4194C22.7421 16.3987 22.7834 16.371 22.8197 16.3372C22.825 16.3326 22.832 16.3312 22.8374 16.3258L24.8605 14.3025C25.0465 14.1162 25.0465 13.8142 24.8605 13.6281L11.3733 0.139541ZM9.20256 3.3644L21.637 15.7988L9.81009 20.1568L4.84507 15.1922L9.20256 3.3644ZM1.93084 23.0706C0.626827 21.7668 0.626827 19.6531 1.93084 18.3493L4.29133 15.9886L9.01254 20.7098L6.65205 23.0706C5.34711 24.3715 3.23555 24.3715 1.93084 23.0706ZM13.3963 25.7685C12.8375 26.3271 11.9314 26.3271 11.3728 25.7685L8.33795 22.7334L9.34926 21.7218L9.68644 21.3847L13.7335 25.4313L13.3963 25.7685ZM22.5007 15.3147L9.6869 2.4998L11.0361 1.15108L23.8503 13.9653L22.5007 15.3147Z" fill="#D8D8D8"/>
</svg>
