<svg width="40" height="38" viewBox="0 0 40 38" fill="none" xmlns="http://www.w3.org/2000/svg">
<path d="M6.70194 34.2858V25.5463H2.4127C0.938272 25.5463 0 24.7396 0 23.5295V2.28584C0 0.941298 1.07231 0.00012207 2.4127 0.00012207H33.7778C35.1182 0.00012207 36.1905 1.07575 36.1905 2.28584V23.5295C36.1905 24.7396 35.2522 25.5463 33.7778 25.5463H18.3633L6.70194 34.2858ZM2.4127 1.34466C1.87654 1.34466 1.34039 1.74802 1.34039 2.28584V23.5295C1.34039 24.0673 2.01058 24.2018 2.4127 24.2018H8.04233V31.5968L17.8272 24.2018H33.7778C34.1799 24.2018 34.8501 24.0673 34.8501 23.5295V2.28584C34.8501 1.74802 34.3139 1.34466 33.7778 1.34466H2.4127Z" fill="white"/>
<path d="M34.8854 37.143V30.5884H38.1587C39.284 30.5884 40 29.9833 40 29.0758V13.143C40 12.1346 39.1817 11.4287 38.1587 11.4287H14.2222C13.1993 11.4287 12.381 12.2354 12.381 13.143V29.0758C12.381 29.9833 13.097 30.5884 14.2222 30.5884H25.9859L34.8854 37.143ZM38.1587 12.4371C38.5679 12.4371 38.9771 12.7396 38.9771 13.143V29.0758C38.9771 29.4791 38.4656 29.58 38.1587 29.58H33.8624V35.1262L26.3951 29.58H14.2222C13.9153 29.58 13.4039 29.4791 13.4039 29.0758V13.143C13.4039 12.7396 13.8131 12.4371 14.2222 12.4371H38.1587Z" fill="white"/>
</svg>
