<svg width="25" height="25" viewBox="0 0 25 25" fill="none" xmlns="http://www.w3.org/2000/svg">
<path d="M12.5 0C5.64815 0 0 5.64815 0 12.5C0 19.3519 5.64815 25 12.5 25C19.3519 25 25 19.3519 25 12.5C25 5.64815 19.3519 0 12.5 0ZM24.0654 12.037H12.7778L7.3235 2.14699C8.8831 1.36574 10.6395 0.925926 12.5 0.925926C18.7326 0.925926 23.8223 5.86227 24.0654 12.037ZM12.5 24.0741C6.11111 24.0741 0.925926 18.8889 0.925926 12.5C0.925926 8.26678 3.20312 4.56308 6.59722 2.5434L12.2222 12.963H24.0654C23.8223 19.1377 18.7326 24.0741 12.5 24.0741Z" fill="#D8D8D8"/>
<rect x="18.1729" y="2" width="0.9" height="12.0597" transform="rotate(30.7874 18.1729 2)" fill="#D8D8D8"/>
</svg>
