<svg width="28" height="20" viewBox="0 0 28 20" fill="none" xmlns="http://www.w3.org/2000/svg">
<path d="M27.9432 10.3325C27.8746 10.4696 27.7603 10.5725 27.6174 10.6182L24.0395 11.8471C23.9767 11.8699 23.9195 11.8756 23.8566 11.8756C23.6223 11.8756 23.3994 11.727 23.3194 11.4927L20.5131 3.30248L20.3702 3.35391C19.6444 3.61111 18.8328 3.56539 18.1412 3.22817L17.7926 3.05671C17.3753 2.85667 16.8895 2.82238 16.4551 2.9767L9.92812 5.22858C9.9967 5.48006 10.1282 5.77155 10.3568 5.93158C10.6197 6.11447 11.0255 6.11447 11.557 5.93158L14.4833 4.93138C14.6319 4.87994 14.7977 4.89708 14.9348 4.97138C15.072 5.04568 15.1749 5.17714 15.2149 5.32574C15.2206 5.34289 15.6321 6.85176 16.901 7.5319C17.7011 7.96056 18.7013 7.97199 19.873 7.57191C20.1702 7.46903 20.4902 7.62906 20.5931 7.92627C20.696 8.22347 20.536 8.54353 20.2388 8.64641C19.5529 8.88075 18.9014 9.00077 18.2955 9.00077C17.5925 9.00077 16.9467 8.84074 16.358 8.52639C15.2149 7.90912 14.6091 6.84605 14.329 6.18877L11.9285 7.0118C11.0369 7.31471 10.2939 7.26899 9.71665 6.86891C8.80789 6.24021 8.74502 5.01139 8.73931 4.87422C8.73359 4.62846 8.88791 4.40556 9.12224 4.31982L16.0951 1.91362C16.8152 1.66786 17.6154 1.71358 18.3012 2.05079L18.6499 2.22226C19.0728 2.42801 19.5643 2.45659 20.0044 2.30227L20.5817 2.09652C20.616 2.07366 20.6503 2.05651 20.6903 2.04508L24.251 0.804828C24.5482 0.70195 24.8683 0.861982 24.9712 1.15919L27.9718 9.90381C28.0175 10.041 28.0061 10.1953 27.9432 10.3325ZM24.0795 2.05651L21.5762 2.91383L24.2053 10.5897L26.7086 9.73235L24.0795 2.05651Z" fill="#D8D8D8"/>
<path d="M22.0505 15.5164C21.7705 16.0879 21.2104 16.4194 20.616 16.4423C20.616 16.688 20.5588 16.9395 20.4502 17.1681C20.2559 17.5682 19.9187 17.8654 19.4957 18.0083C19.3186 18.0712 19.1357 18.0997 18.9585 18.0997C18.707 18.0997 18.4613 18.0426 18.2326 17.9283L17.9354 17.7797C17.9126 17.9511 17.8611 18.1283 17.7811 18.2941C17.5868 18.6941 17.2496 18.9913 16.8266 19.1342C16.6495 19.1971 16.4666 19.2257 16.2894 19.2257C16.0379 19.2257 15.7921 19.1685 15.5635 19.0542L9.06507 15.8707C7.61335 15.162 6.27593 14.2475 5.08712 13.1559L3.6354 11.8242L0.314728 10.201C0.0346699 10.0638 -0.0796375 9.72661 0.0575314 9.44655L4.10406 1.14202C4.17265 1.00485 4.28696 0.901971 4.42984 0.856247C4.57273 0.804808 4.72705 0.816239 4.86422 0.884824L8.25919 2.54802C8.53925 2.68519 8.65355 3.0224 8.51638 3.30246L4.64132 11.2241L5.84156 12.3271C6.95035 13.3445 8.20203 14.1961 9.55088 14.8591L16.0493 18.0426C16.1751 18.1054 16.318 18.1112 16.4551 18.0654C16.5866 18.0197 16.6952 17.9226 16.758 17.7968C16.8209 17.6711 16.8266 17.5282 16.7809 17.391C16.7352 17.2596 16.638 17.151 16.5123 17.0881L12.8773 15.3106C12.5972 15.1734 12.4829 14.8362 12.6201 14.5562C12.7572 14.2761 13.0945 14.1618 13.3745 14.299L17.0095 16.0765L18.7242 16.9166C18.8499 16.9795 18.9928 16.9852 19.13 16.9395C19.2614 16.8938 19.37 16.7966 19.4329 16.6709C19.4957 16.5451 19.5015 16.4022 19.4557 16.2651C19.41 16.1336 19.3129 16.025 19.1871 15.9622L13.9746 13.4131C13.6946 13.2759 13.5803 12.9387 13.7174 12.6586C13.8546 12.3786 14.1918 12.2643 14.4719 12.4014L20.3302 15.2649C20.5931 15.3906 20.9075 15.282 21.0389 15.0248C21.1018 14.8991 21.1075 14.7562 21.0618 14.619C21.0161 14.4876 20.9189 14.379 20.7932 14.3161L18.4841 13.1845L15.4835 11.7156C15.2034 11.5784 15.0891 11.2412 15.2263 10.9611C15.3635 10.6811 15.7007 10.5668 15.9807 10.7039L20.6503 12.9901C20.9132 13.1159 21.2275 13.0073 21.359 12.7501C21.4847 12.4872 21.3761 12.1728 21.1189 12.0414L18.6384 10.8297C18.3584 10.6925 18.2441 10.3553 18.3812 10.0753C18.5184 9.7952 18.8556 9.68089 19.1357 9.81806L21.6162 11.0297C22.4392 11.4298 22.7821 12.43 22.3763 13.253C22.262 13.4874 22.102 13.676 21.9077 13.8303C22.2506 14.2932 22.3306 14.9505 22.0505 15.5164ZM7.25327 3.31389L4.87565 2.14794L1.30921 9.43512L3.68684 10.6011L7.25327 3.31389Z" fill="#D8D8D8"/>
</svg>
