<svg width="25" height="25" viewBox="0 0 25 25" fill="none" xmlns="http://www.w3.org/2000/svg">
<path d="M24.748 19.6475L15.3963 10.1117L17.9157 7.59227L18.7834 8.45995L20.7357 6.50764L14.228 0L12.2758 1.95224L13.1435 2.81992L5.98502 9.97835L5.11734 9.11068L3.1651 11.063L9.67268 17.5706L11.625 15.6183L10.7573 14.7506L13.2271 12.2809L22.5788 21.8167L24.748 19.6475ZM13.5772 1.95224L14.228 1.30152L19.4341 6.50764L18.7834 7.15843L18.5665 6.94154L13.7942 2.16926L13.5772 1.95224ZM10.3235 15.6183L9.67268 16.2691L4.46656 11.063L5.11728 10.4122L5.33423 10.6291L10.1065 15.4014L10.3235 15.6183ZM6.63575 10.6291L13.7942 3.47071L17.2649 6.94148L14.7518 9.45457L13.6672 10.5392L10.1065 14.0999L6.63575 10.6291ZM14.7454 10.7625L23.4528 19.6412L22.5851 20.5088L13.8778 11.6301L14.7454 10.7625Z" fill="#D8D8D8"/>
<path d="M11.0502 20.3986H1.47886V22.2392H0.25177V25.0002H12.5227V22.2392H11.0502V20.3986ZM2.39918 21.3189H10.1299V22.2392H2.39918V21.3189ZM11.6024 23.1595V24.0798H1.17209V23.1595H1.47886H11.0502H11.6024Z" fill="#D8D8D8"/>
</svg>
