<svg width="25" height="23" viewBox="0 0 25 23" fill="none" xmlns="http://www.w3.org/2000/svg">
<path d="M24.5833 22.125V5.875H19.5833V22.125H18.3333V9.20833H13.3333V22.125H12.0833V12.5417H7.08333V22.125H5.83333V16.2917H0.833333V22.125H0.416667C0.186667 22.125 0 22.3112 0 22.5417C0 22.7721 0.186667 22.9583 0.416667 22.9583H0.833333H5.83333H7.08333H12.0833H13.3333H18.3333H19.5833H24.5833C24.8133 22.9583 25 22.7721 25 22.5417C25 22.3112 24.8133 22.125 24.5833 22.125ZM1.66667 22.125V17.125H5V22.125H1.66667ZM7.91667 22.125V13.375H11.25V22.125H7.91667ZM14.1667 22.125V10.0417H17.5V22.125H14.1667ZM20.4167 22.125V6.70833H23.75V22.125H20.4167Z" fill="#D8D8D8"/>
<path d="M3.34608 10.5957C3.41649 10.5957 3.48858 10.5778 3.55399 10.5399L18.6661 1.81491L17.7202 3.89407C17.6248 4.10366 17.7173 4.35074 17.9269 4.44574C17.9827 4.47157 18.0415 4.48324 18.0994 4.48324C18.2577 4.48324 18.409 4.39241 18.479 4.23907L19.9632 0.976572C19.9677 0.966156 19.9669 0.954906 19.9707 0.944072C19.9786 0.921989 19.9848 0.900739 19.989 0.877406C19.9911 0.865739 19.9977 0.856156 19.9986 0.844072C19.999 0.839072 19.9969 0.834906 19.9973 0.829906C19.9982 0.814073 19.9965 0.799489 19.9957 0.783656C19.9944 0.760739 19.9907 0.739072 19.9857 0.716156C19.9823 0.700322 19.9815 0.684072 19.9761 0.668656C19.9711 0.653656 19.9623 0.641156 19.9557 0.626572C19.9502 0.616989 19.9502 0.605739 19.9444 0.595739C19.9386 0.585739 19.9286 0.579906 19.9219 0.570322C19.9132 0.557406 19.9065 0.543656 19.8961 0.531989C19.8852 0.519489 19.8715 0.510739 19.859 0.499489C19.8419 0.484072 19.8248 0.469906 19.8057 0.457406C19.7927 0.449072 19.7811 0.439906 19.7669 0.432822C19.7623 0.430739 19.7598 0.426572 19.7552 0.424489C19.7448 0.419906 19.7336 0.420739 19.7232 0.416989C19.7002 0.408656 19.6777 0.402822 19.654 0.398656C19.6432 0.396572 19.6344 0.390322 19.6232 0.389489L16.0557 0.0436558C15.8244 0.0203224 15.6227 0.189489 15.6007 0.417822C15.5782 0.646989 15.7461 0.850739 15.9748 0.872822L18.2482 1.09324L3.13733 9.81824C2.93774 9.93324 2.86983 10.1882 2.98483 10.3874C3.06191 10.5212 3.20191 10.5957 3.34608 10.5957Z" fill="#D8D8D8"/>
</svg>
