<svg width="35" height="34" viewBox="0 0 35 34" fill="none" xmlns="http://www.w3.org/2000/svg">
<path d="M20.4457 21.2448L20.9457 21.2407C20.4457 21.2448 20.4457 21.2449 20.4457 21.245L20.4457 21.2453L20.4457 21.246L20.4458 21.248L20.4458 21.2546L20.4462 21.2776C20.4466 21.2972 20.4473 21.3251 20.4485 21.3603C20.4509 21.4304 20.4553 21.5297 20.4634 21.6488C20.4795 21.8855 20.5107 22.2077 20.5718 22.5389C20.6317 22.8637 20.7257 23.2287 20.881 23.5341C21.029 23.8254 21.2952 24.1803 21.7503 24.2529C22.3866 24.3544 23.514 24.7064 24.8676 25.2733C26.2116 25.8362 27.7468 26.5975 29.1936 27.4983C30.6435 28.401 31.9855 29.4319 32.9594 30.5287C33.7883 31.4623 34.3184 32.4067 34.4611 33.3333H17.5H0.538912C0.681641 32.4067 1.21168 31.4623 2.0406 30.5287C3.01443 29.4319 4.35646 28.401 5.80639 27.4983C7.25315 26.5975 8.78829 25.8362 10.1323 25.2733C11.4859 24.7064 12.6133 24.3544 13.2495 24.2529C13.7046 24.1803 13.9708 23.8254 14.1189 23.5341C14.2741 23.2287 14.3682 22.8637 14.4281 22.5389C14.4891 22.2077 14.5203 21.8855 14.5364 21.6488C14.5445 21.5297 14.5489 21.4304 14.5513 21.3603C14.5525 21.3251 14.5532 21.2972 14.5536 21.2776L14.554 21.2546L14.5541 21.248L14.5541 21.246L14.5541 21.2453L14.5541 21.245C14.5541 21.2449 14.5541 21.2448 14.0541 21.2407L14.5541 21.2448L14.5559 21.0342L14.4067 20.8861L14.4066 20.886L14.4065 20.8859L14.4063 20.8858L14.4061 20.8855L14.4022 20.8816L14.3841 20.8632C14.3676 20.8462 14.3424 20.8199 14.3095 20.7846C14.2437 20.7141 14.1474 20.6081 14.0293 20.4697C13.793 20.1927 13.4708 19.7877 13.1318 19.2803C12.4506 18.2608 11.7175 16.8523 11.4567 15.2548L11.3882 14.8354H10.9632C10.8081 14.8354 10.6022 14.7413 10.3804 14.4501C10.1627 14.1643 9.97974 13.7469 9.87641 13.2708C9.77357 12.7969 9.75677 12.2972 9.84181 11.8581C9.92704 11.418 10.1071 11.0714 10.3685 10.8489L10.5552 10.6899L10.5438 10.4449C10.5374 10.3075 10.5171 10.1141 10.492 9.87577C10.3783 8.7962 10.1673 6.79281 10.7167 4.87145C11.0458 3.72043 11.6418 2.64051 12.6786 1.84476C13.7145 1.0497 15.2403 0.5 17.5 0.5C19.7596 0.5 21.2855 1.0497 22.3214 1.84476C23.3582 2.64051 23.9542 3.72044 24.2833 4.87145C24.8329 6.79336 24.6216 8.79753 24.5078 9.87677C24.4827 10.1146 24.4623 10.3076 24.4559 10.4448L24.4445 10.6898L24.6313 10.8489C24.8927 11.0714 25.0728 11.418 25.158 11.8581C25.2431 12.2973 25.2263 12.7969 25.1234 13.2708C25.0201 13.7469 24.8371 14.1643 24.6194 14.4501C24.3976 14.7413 24.1917 14.8354 24.0366 14.8354H23.6117L23.5432 15.2548C23.2823 16.8523 22.5492 18.2608 21.868 19.2803C21.529 19.7877 21.2068 20.1927 20.9705 20.4697C20.8525 20.6081 20.7562 20.7141 20.6904 20.7846C20.6575 20.8199 20.6322 20.8462 20.6157 20.8632L20.5976 20.8816L20.5938 20.8855L20.5935 20.8858L20.5933 20.8859L20.5932 20.8861L20.5932 20.8861L20.444 21.0342L20.4457 21.2448Z" stroke="white"/>
</svg>
