<svg width="22" height="22" viewBox="0 0 22 22" fill="none" xmlns="http://www.w3.org/2000/svg">
<path d="M7.96552 5.31041H6.06897V3.41386C6.06897 3.2041 5.89904 3.03455 5.68966 3.03455C5.48028 3.03455 5.31035 3.2041 5.31035 3.41386V5.31041H3.4138C3.20442 5.31041 3.03448 5.47996 3.03448 5.68972C3.03448 5.89948 3.20442 6.06903 3.4138 6.06903H5.31035V7.96558C5.31035 8.17534 5.48028 8.34489 5.68966 8.34489C5.89904 8.34489 6.06897 8.17534 6.06897 7.96558V6.06903H7.96552C8.1749 6.06903 8.34483 5.89948 8.34483 5.68972C8.34483 5.47996 8.1749 5.31041 7.96552 5.31041Z" fill="#D8D8D8"/>
<path d="M18.5862 5.3103H14.0345C13.8251 5.3103 13.6552 5.47985 13.6552 5.68961C13.6552 5.89937 13.8251 6.06892 14.0345 6.06892H18.5862C18.7956 6.06892 18.9655 5.89937 18.9655 5.68961C18.9655 5.47985 18.7956 5.3103 18.5862 5.3103Z" fill="#D8D8D8"/>
<path d="M11.3793 0H10.6207H0V10.6207V11.3793V22H10.6207H11.3793H22V11.3793V10.6207V0H11.3793ZM0.758621 0.758621H10.6207V10.6207H0.758621V0.758621ZM0.758621 21.2414V11.3793H10.6207V21.2414H0.758621ZM21.2414 21.2414H11.3793V11.3793H21.2414V21.2414ZM11.3793 10.6207V0.758621H21.2414V10.6207H11.3793Z" fill="#D8D8D8"/>
<path d="M14.0345 17.8276H18.5862C18.7956 17.8276 18.9655 17.658 18.9655 17.4483C18.9655 17.2385 18.7956 17.069 18.5862 17.069H14.0345C13.8251 17.069 13.6552 17.2385 13.6552 17.4483C13.6552 17.658 13.8251 17.8276 14.0345 17.8276Z" fill="#D8D8D8"/>
<path d="M14.0345 15.5517H18.5862C18.7956 15.5517 18.9655 15.3822 18.9655 15.1724C18.9655 14.9626 18.7956 14.7931 18.5862 14.7931H14.0345C13.8251 14.7931 13.6552 14.9626 13.6552 15.1724C13.6552 15.3822 13.8251 15.5517 14.0345 15.5517Z" fill="#D8D8D8"/>
<path d="M7.85426 14.1458C7.70595 13.9975 7.46622 13.9975 7.31791 14.1458L5.68953 15.7742L4.06115 14.1458C3.91284 13.9975 3.67312 13.9975 3.52481 14.1458C3.3765 14.2941 3.3765 14.5338 3.52481 14.6821L5.15319 16.3105L3.52481 17.9389C3.3765 18.0872 3.3765 18.3269 3.52481 18.4752C3.59877 18.5492 3.69588 18.5864 3.79298 18.5864C3.89008 18.5864 3.98719 18.5492 4.06115 18.4752L5.68953 16.8468L7.31791 18.4752C7.39188 18.5492 7.48898 18.5864 7.58608 18.5864C7.68319 18.5864 7.78029 18.5492 7.85426 18.4752C8.00257 18.3269 8.00257 18.0872 7.85426 17.9389L6.22588 16.3105L7.85426 14.6821C8.00257 14.5338 8.00257 14.2941 7.85426 14.1458Z" fill="#D8D8D8"/>
</svg>
