<svg width="25" height="18" viewBox="0 0 25 18" fill="none" xmlns="http://www.w3.org/2000/svg">
<path d="M23.75 18H1.25C0.918479 18 0.600537 17.8683 0.366117 17.6339C0.131696 17.3995 0 17.0815 0 16.75L0 1.25C0 0.918479 0.131696 0.600537 0.366117 0.366117C0.600537 0.131696 0.918479 0 1.25 0H23.75C24.0815 0 24.3995 0.131696 24.6339 0.366117C24.8683 0.600537 25 0.918479 25 1.25V16.75C25 17.0815 24.8683 17.3995 24.6339 17.6339C24.3995 17.8683 24.0815 18 23.75 18ZM1 5V16.75C1 16.8163 1.02634 16.8799 1.07322 16.9268C1.12011 16.9737 1.1837 17 1.25 17H23.75C23.8163 17 23.8799 16.9737 23.9268 16.9268C23.9737 16.8799 24 16.8163 24 16.75V5H1ZM1 4H24V1.25C24 1.1837 23.9737 1.12011 23.9268 1.07322C23.8799 1.02634 23.8163 1 23.75 1H1.25C1.1837 1 1.12011 1.02634 1.07322 1.07322C1.02634 1.12011 1 1.1837 1 1.25V4ZM12 14H3V13H12V14ZM10 12H3V11H10V12Z" fill="#D8D8D8"/>
</svg>
