<svg width="40" height="38" viewBox="0 0 40 38" fill="none" xmlns="http://www.w3.org/2000/svg">
<path d="M39.3333 36V10H31.3333V36H29.3333V15.3333H21.3333V36H19.3333V20.6667H11.3333V36H9.33333V26.6667H1.33333V36H0.666667C0.298667 36 0 36.298 0 36.6667C0 37.0353 0.298667 37.3333 0.666667 37.3333H1.33333H9.33333H11.3333H19.3333H21.3333H29.3333H31.3333H39.3333C39.7013 37.3333 40 37.0353 40 36.6667C40 36.298 39.7013 36 39.3333 36ZM2.66667 36V28H8V36H2.66667ZM12.6667 36V22H18V36H12.6667ZM22.6667 36V16.6667H28V36H22.6667ZM32.6667 36V11.3333H38V36H32.6667Z" fill="#FEFEFE"/>
<path d="M5.35362 17.5532C5.46629 17.5532 5.58162 17.5245 5.68629 17.4638L29.8656 3.50382L28.3523 6.83049C28.1996 7.16582 28.3476 7.56116 28.683 7.71316C28.7723 7.75449 28.8663 7.77316 28.959 7.77316C29.2123 7.77316 29.4543 7.62782 29.5663 7.38249L31.941 2.16249C31.9483 2.14582 31.947 2.12782 31.953 2.11049C31.9656 2.07516 31.9756 2.04116 31.9823 2.00382C31.9856 1.98516 31.9963 1.96982 31.9976 1.95049C31.9983 1.94249 31.995 1.93582 31.9956 1.92782C31.997 1.90249 31.9943 1.87916 31.993 1.85382C31.991 1.81716 31.985 1.78249 31.977 1.74582C31.9716 1.72049 31.9703 1.69449 31.9616 1.66982C31.9536 1.64582 31.9396 1.62582 31.929 1.60249C31.9203 1.58716 31.9203 1.56916 31.911 1.55316C31.9016 1.53716 31.8856 1.52782 31.875 1.51249C31.861 1.49182 31.8503 1.46982 31.8336 1.45116C31.8163 1.43116 31.7943 1.41716 31.7743 1.39916C31.747 1.37449 31.7196 1.35182 31.689 1.33182C31.6683 1.31849 31.6496 1.30382 31.627 1.29249C31.6196 1.28916 31.6156 1.28249 31.6083 1.27916C31.5916 1.27182 31.5736 1.27316 31.557 1.26716C31.5203 1.25382 31.4843 1.24449 31.4463 1.23782C31.429 1.23449 31.415 1.22449 31.397 1.22316L25.689 0.669825C25.319 0.632491 24.9963 0.903158 24.961 1.26849C24.925 1.63516 25.1936 1.96116 25.5596 1.99649L29.197 2.34916L5.01962 16.3092C4.70029 16.4932 4.59162 16.9012 4.77562 17.2198C4.89895 17.4338 5.12295 17.5532 5.35362 17.5532Z" fill="#FEFEFE"/>
</svg>
