<svg width="16" height="16" viewBox="0 0 16 16" fill="none" xmlns="http://www.w3.org/2000/svg">
<path d="M14.6125 2.18958H13.5184C13.0007 2.18958 12.5809 1.76984 12.5809 1.25208C12.5809 0.992856 12.3714 0.783325 12.1122 0.783325C11.853 0.783325 11.6434 0.992856 11.6434 1.25208C11.6434 1.76984 11.2237 2.18958 10.7059 2.18958H9.76843C9.25067 2.18958 8.83093 1.76984 8.83093 1.25208C8.83093 0.992856 8.62093 0.783325 8.36218 0.783325C8.10343 0.783325 7.89343 0.992856 7.89343 1.25208C7.89343 1.76984 7.4737 2.18958 6.95593 2.18958H6.01843C5.50067 2.18958 5.08093 1.76984 5.08093 1.25208C5.08093 0.992856 4.87093 0.783325 4.61218 0.783325C4.35343 0.783325 4.14343 0.992856 4.14343 1.25208C4.14343 1.76984 3.7237 2.18958 3.20593 2.18958H2.11234C1.42187 2.18958 0.862183 2.74879 0.862183 3.43926V14.5332C0.862183 15.2236 1.42187 15.7833 2.11234 15.7833H14.6125C15.303 15.7833 15.8622 15.2236 15.8622 14.5332V3.43926C15.8622 2.74879 15.303 2.18958 14.6125 2.18958ZM14.9247 14.5332C14.9247 14.7057 14.7845 14.8458 14.6125 14.8458H2.11234C1.93984 14.8458 1.79968 14.7057 1.79968 14.5332V3.43926C1.79968 3.26723 1.93984 3.12708 2.11234 3.12708H3.20593C3.7237 3.12708 4.14343 3.54681 4.14343 4.06458C4.14343 4.32379 4.35343 4.53333 4.61218 4.53333C4.87093 4.53333 5.08093 4.32379 5.08093 4.06458C5.08093 3.54681 5.50067 3.12708 6.01843 3.12708H6.95593C7.4737 3.12708 7.89343 3.54681 7.89343 4.06458C7.89343 4.32379 8.10343 4.53333 8.36218 4.53333C8.62093 4.53333 8.83093 4.32379 8.83093 4.06458C8.83093 3.54681 9.25067 3.12708 9.76843 3.12708H10.7059C11.2237 3.12708 11.6434 3.54681 11.6434 4.06458C11.6434 4.32379 11.853 4.53333 12.1122 4.53333C12.3714 4.53333 12.5809 4.32379 12.5809 4.06458C12.5809 3.54681 13.0007 3.12708 13.5184 3.12708H14.6125C14.7845 3.12708 14.9247 3.26723 14.9247 3.43926V14.5332Z" fill="url(#paint0_linear)"/>
<path d="M14.9247 14.5332C14.9247 14.7057 14.7845 14.8458 14.6125 14.8458H2.11234C1.93984 14.8458 1.79968 14.7057 1.79968 14.5332V3.43926C1.79968 3.26723 1.93984 3.12708 2.11234 3.12708H3.20593C3.7237 3.12708 4.14343 3.54681 4.14343 4.06458C4.14343 4.32379 4.35343 4.53333 4.61218 4.53333C4.87093 4.53333 5.08093 4.32379 5.08093 4.06458C5.08093 3.54681 5.50067 3.12708 6.01843 3.12708H6.95593C7.4737 3.12708 7.89343 3.54681 7.89343 4.06458C7.89343 4.32379 8.10343 4.53333 8.36218 4.53333C8.62093 4.53333 8.83093 4.32379 8.83093 4.06458C8.83093 3.54681 9.25067 3.12708 9.76843 3.12708H10.7059C11.2237 3.12708 11.6434 3.54681 11.6434 4.06458C11.6434 4.32379 11.853 4.53333 12.1122 4.53333C12.3714 4.53333 12.5809 4.32379 12.5809 4.06458C12.5809 3.54681 13.0007 3.12708 13.5184 3.12708H14.6125C14.7845 3.12708 14.9247 3.26723 14.9247 3.43926V14.5332Z" fill="url(#paint1_linear)"/>
<path d="M6.01843 6.40833H4.14343V7.81458H6.01843V6.40833Z" fill="white"/>
<path d="M6.01843 8.75208H4.14343V10.1583H6.01843V8.75208Z" fill="white"/>
<path d="M6.01843 11.0958H4.14343V12.5021H6.01843V11.0958Z" fill="white"/>
<path d="M9.29968 11.0958H7.42468V12.5021H9.29968V11.0958Z" fill="white"/>
<path d="M9.29968 8.75208H7.42468V10.1583H9.29968V8.75208Z" fill="white"/>
<path d="M9.29968 6.40833H7.42468V7.81458H9.29968V6.40833Z" fill="white"/>
<path d="M12.5809 11.0958H10.7059V12.5021H12.5809V11.0958Z" fill="white"/>
<path d="M12.5809 8.75208H10.7059V10.1583H12.5809V8.75208Z" fill="white"/>
<path d="M12.5809 6.40833H10.7059V7.81458H12.5809V6.40833Z" fill="white"/>
<defs>
<linearGradient id="paint0_linear" x1="0.294869" y1="4.66735" x2="15.179" y2="12.1303" gradientUnits="userSpaceOnUse">
<stop offset="0.0931615" stop-color="#F49135"/>
<stop offset="0.998516" stop-color="#FE6737"/>
</linearGradient>
<linearGradient id="paint1_linear" x1="0.294869" y1="4.66735" x2="15.179" y2="12.1303" gradientUnits="userSpaceOnUse">
<stop offset="0.0931615" stop-color="#F49135"/>
<stop offset="0.998516" stop-color="#FE6737"/>
</linearGradient>
</defs>
</svg>
