<svg width="12" height="16" viewBox="0 0 12 16" fill="none" xmlns="http://www.w3.org/2000/svg">
<path d="M5.25 1C5.25 0.585786 5.58579 0.25 6 0.25C6.41421 0.25 6.75 0.585786 6.75 1L5.25 1ZM6.53033 15.5303C6.23744 15.8232 5.76256 15.8232 5.46967 15.5303L0.696699 10.7574C0.403806 10.4645 0.403806 9.9896 0.696699 9.6967C0.989593 9.40381 1.46447 9.40381 1.75736 9.6967L6 13.9393L10.2426 9.6967C10.5355 9.40381 11.0104 9.40381 11.3033 9.6967C11.5962 9.9896 11.5962 10.4645 11.3033 10.7574L6.53033 15.5303ZM6.75 1L6.75 15H5.25L5.25 1L6.75 1Z" fill="#DA1628"/>
</svg>
