<svg width="20" height="20" viewBox="0 0 20 20" fill="none" xmlns="http://www.w3.org/2000/svg">
<path d="M11.4338 19.0921C11.3905 19.1 11.3461 19.1 11.3028 19.0921L8.39183 18.0005C8.31923 17.9727 8.25745 17.9223 8.21554 17.8568C8.17364 17.7914 8.1538 17.7142 8.15895 17.6366V10.5047C8.14417 10.4533 8.12212 10.4043 8.09345 10.3591L2.14049 1.62618H1.26719C1.17069 1.62618 1.07814 1.58785 1.0099 1.51961C0.941657 1.45137 0.90332 1.35882 0.90332 1.26231C0.90332 1.16581 0.941657 1.07325 1.0099 1.00501C1.07814 0.936774 1.17069 0.898438 1.26719 0.898438H18.7331C18.8296 0.898438 18.9222 0.936774 18.9904 1.00501C19.0586 1.07325 19.097 1.16581 19.097 1.26231C19.097 1.35882 19.0586 1.45137 18.9904 1.51961C18.9222 1.58785 18.8296 1.62618 18.7331 1.62618H17.8234L11.8777 10.3591C11.844 10.3981 11.8169 10.4423 11.7977 10.4901V18.7282C11.7994 18.786 11.7871 18.8434 11.7617 18.8954C11.7364 18.9474 11.6988 18.9924 11.6521 19.0266C11.5882 19.0712 11.5117 19.0942 11.4338 19.0921ZM8.8867 17.3819L11.0699 18.197V10.5047C11.0803 10.3071 11.1544 10.1182 11.281 9.96615L16.9428 1.62618H3.02106L8.6902 9.97343C8.81364 10.1239 8.88512 10.3103 8.89397 10.5047L8.8867 17.3819Z" fill="#8D9498"/>
<path d="M8.8867 17.3819L11.0699 18.197V10.5047C11.0803 10.3071 11.1544 10.1182 11.281 9.96615L16.9428 1.62618H3.02106L8.6902 9.97343C8.81364 10.1239 8.88512 10.3103 8.89397 10.5047L8.8867 17.3819Z" fill="#8D9498"/>
</svg>
