<svg width="20" height="20" viewBox="0 0 20 20" fill="none" xmlns="http://www.w3.org/2000/svg">
<path d="M11.4338 19.0938C11.3905 19.1017 11.3461 19.1017 11.3028 19.0938L8.39183 18.0022C8.31923 17.9744 8.25745 17.924 8.21554 17.8585C8.17364 17.7931 8.1538 17.7159 8.15895 17.6383V10.5064C8.14417 10.455 8.12212 10.406 8.09345 10.3608L2.14049 1.62789H1.26719C1.17069 1.62789 1.07814 1.58956 1.0099 1.52132C0.941657 1.45308 0.90332 1.36052 0.90332 1.26402C0.90332 1.16751 0.941657 1.07496 1.0099 1.00672C1.07814 0.938483 1.17069 0.900146 1.26719 0.900146H18.7331C18.8296 0.900146 18.9222 0.938483 18.9904 1.00672C19.0586 1.07496 19.097 1.16751 19.097 1.26402C19.097 1.36052 19.0586 1.45308 18.9904 1.52132C18.9222 1.58956 18.8296 1.62789 18.7331 1.62789H17.8234L11.8777 10.3608C11.844 10.3998 11.8169 10.444 11.7977 10.4918V18.7299C11.7994 18.7877 11.7871 18.8451 11.7617 18.8971C11.7364 18.9491 11.6988 18.9941 11.6521 19.0283C11.5882 19.073 11.5117 19.0959 11.4338 19.0938ZM8.8867 17.3836L11.0699 18.1987V10.5064C11.0803 10.3088 11.1544 10.1199 11.281 9.96786L16.9428 1.62789H3.02106L8.6902 9.97514C8.81364 10.1256 8.88512 10.312 8.89397 10.5064L8.8867 17.3836Z" fill="#8D9498" stroke="#8D9498"/>
</svg>
