<svg width="20" height="20" viewBox="0 0 20 20" fill="none" xmlns="http://www.w3.org/2000/svg">
<path d="M11.4337 19.0923C11.3904 19.1003 11.346 19.1003 11.3027 19.0923L8.39171 18.0007C8.31911 17.9729 8.25733 17.9226 8.21542 17.8571C8.17351 17.7916 8.15368 17.7144 8.15883 17.6368V10.5049C8.14405 10.4535 8.122 10.4045 8.09333 10.3594L2.14037 1.62643H1.26707C1.17057 1.62643 1.07801 1.58809 1.00977 1.51985C0.941535 1.45161 0.903198 1.35906 0.903198 1.26255C0.903198 1.16605 0.941535 1.0735 1.00977 1.00526C1.07801 0.937018 1.17057 0.898682 1.26707 0.898682H18.733C18.8295 0.898682 18.922 0.937018 18.9903 1.00526C19.0585 1.0735 19.0969 1.16605 19.0969 1.26255C19.0969 1.35906 19.0585 1.45161 18.9903 1.51985C18.922 1.58809 18.8295 1.62643 18.733 1.62643H17.8233L11.8776 10.3594C11.8439 10.3983 11.8168 10.4426 11.7976 10.4904V18.7285C11.7993 18.7863 11.787 18.8436 11.7616 18.8956C11.7363 18.9476 11.6986 18.9926 11.652 19.0268C11.5881 19.0715 11.5116 19.0944 11.4337 19.0923ZM8.88657 17.3821L11.0698 18.1972V10.5049C11.0802 10.3074 11.1543 10.1184 11.2809 9.9664L16.9427 1.62643H3.02094L8.69008 9.97368C8.81352 10.1242 8.88499 10.3105 8.89385 10.5049L8.88657 17.3821Z" fill="#8D9498"/>
</svg>
