<svg width="12" height="12" viewBox="0 0 12 12" fill="none" xmlns="http://www.w3.org/2000/svg">
<path d="M7.23688 7.81225C6.99011 7.77289 6.98449 7.09269 6.98449 7.09269C6.98449 7.09269 7.70958 6.37311 7.86761 5.40548C8.29272 5.40548 8.55531 4.37676 8.13011 4.01482C8.14792 3.63381 8.67656 1.02393 6 1.02393C3.32341 1.02393 3.85212 3.63381 3.86982 4.01482C3.44467 4.37676 3.70721 5.40548 4.13234 5.40548C4.29036 6.37311 5.01547 7.09269 5.01547 7.09269C5.01547 7.09269 5.00984 7.77289 4.76308 7.81225C4.14109 7.91146 2.18829 8.73668 1.3683 9.7805C1.02712 10.2148 1.44661 10.6906 1.99889 10.6906C3.05826 10.6906 4.74828 10.6906 6 10.6906C7.25172 10.6906 8.94174 10.6906 10.0011 10.6906C10.5534 10.6906 10.9729 10.2148 10.6317 9.7805C9.8117 8.73668 7.85889 7.91146 7.23688 7.81225Z" fill="white" stroke="#8D9498"/>
</svg>
