<svg width="12" height="16" viewBox="0 0 12 16" fill="none" xmlns="http://www.w3.org/2000/svg">
<path d="M5.25 15C5.25 15.4142 5.58579 15.75 6 15.75C6.41421 15.75 6.75 15.4142 6.75 15H5.25ZM6.53033 0.469666C6.23744 0.176772 5.76256 0.176772 5.46967 0.469666L0.696699 5.24264C0.403806 5.53553 0.403806 6.0104 0.696699 6.3033C0.989593 6.59619 1.46447 6.59619 1.75736 6.3033L6 2.06066L10.2426 6.3033C10.5355 6.59619 11.0104 6.59619 11.3033 6.3033C11.5962 6.0104 11.5962 5.53553 11.3033 5.24264L6.53033 0.469666ZM6.75 15L6.75 0.999995H5.25L5.25 15H6.75Z" fill="#01AF66"/>
</svg>
