<svg width="12" height="9" viewBox="0 0 12 9" fill="none" xmlns="http://www.w3.org/2000/svg">
<path d="M10.1939 8.10918H1.80614C1.3618 8.10918 1 7.74771 1 7.30304V1.80614C1 1.36147 1.3618 1 1.80614 1H10.1939C10.6382 1 11 1.36147 11 1.80614V7.30304C11 7.74771 10.6382 8.10918 10.1939 8.10918ZM1.80614 1.32246C1.53947 1.32246 1.32246 1.53947 1.32246 1.80614V7.30304C1.32246 7.56971 1.53947 7.78673 1.80614 7.78673H10.1939C10.4605 7.78673 10.6775 7.56971 10.6775 7.30304V1.80614C10.6775 1.53947 10.4605 1.32246 10.1939 1.32246H1.80614Z" fill="#8D9498" stroke="#8D9498" stroke-width="0.6"/>
<path d="M6.00051 5C5.77562 5 5.55072 4.9477 5.3796 4.84333L1.05797 2.20765C0.987631 2.16458 0.980191 2.09003 1.04174 2.0408C1.10329 1.99111 1.21016 1.98637 1.2805 2.02921L5.60179 4.66489C5.81823 4.79671 6.18346 4.79647 6.39922 4.66489L10.7195 2.02944C10.7895 1.98614 10.896 1.99111 10.9583 2.04104C11.0198 2.09027 11.0124 2.16481 10.942 2.20789L6.62141 4.84309C6.45029 4.9477 6.2254 5 6.00051 5Z" fill="#8D9498" stroke="#8D9498" stroke-width="0.6"/>
</svg>
