<svg width="8" height="6" viewBox="0 0 8 6" fill="none" xmlns="http://www.w3.org/2000/svg">
<path d="M1.85462 3.37772C1.6395 3.20458 1.32475 3.2386 1.15161 3.45372C0.97846 3.66883 1.01248 3.98358 1.2276 4.15673L1.85462 3.37772ZM3.19362 5.09734L2.88011 5.48684C3.09523 5.65998 3.40998 5.62596 3.58312 5.41085L3.19362 5.09734ZM6.68672 1.55498C6.85986 1.33986 6.82584 1.02511 6.61072 0.851966C6.39561 0.678819 6.08086 0.712842 5.90771 0.927958L6.68672 1.55498ZM1.2276 4.15673L2.88011 5.48684L3.50713 4.70783L1.85462 3.37772L1.2276 4.15673ZM3.58312 5.41085L6.68672 1.55498L5.90771 0.927958L2.80412 4.78383L3.58312 5.41085Z" fill="white"/>
</svg>
