<svg width="18" height="18" viewBox="0 0 18 18" fill="none" xmlns="http://www.w3.org/2000/svg">
<mask id="path-1-inside-1" fill="white">
<path d="M4.69499 0.978418C4.69499 0.84997 4.66969 0.722778 4.62054 0.604107C4.57138 0.485435 4.49934 0.377607 4.40851 0.286779C4.31768 0.195951 4.20985 0.123905 4.09118 0.074749C3.97251 0.0255947 3.84532 0.000293732 3.71687 0.000293732H0.978124C0.849675 0.000293732 0.722483 0.0255947 0.603812 0.074749C0.485141 0.123905 0.377313 0.195951 0.286486 0.286779C0.195659 0.377607 0.123611 0.485435 0.0744552 0.604107C0.0252999 0.722778 0 0.84997 0 0.978418V9.97716C0 10.2366 0.103052 10.4854 0.286486 10.6688C0.46992 10.8522 0.718709 10.9553 0.978124 10.9553H3.71687C3.96381 10.9579 4.20246 10.8663 4.3842 10.6991C4.56594 10.5319 4.67708 10.3017 4.69499 10.0554V0.978418ZM17.9975 8.60778C17.9975 9.02285 17.8326 9.42091 17.5391 9.7144C17.2456 10.0079 16.8475 10.1728 16.4325 10.1728H11.581C11.5477 10.1725 11.515 10.181 11.4861 10.1975C11.4573 10.214 11.4333 10.2379 11.4167 10.2667C11.3987 10.2961 11.3892 10.33 11.3892 10.3645C11.3892 10.399 11.3987 10.4328 11.4167 10.4623C12.0179 11.7672 12.4542 13.142 12.7156 14.5548L12.8252 15.0165C12.9027 15.3431 12.9093 15.6825 12.8445 16.0118C12.7797 16.3412 12.645 16.6529 12.4496 16.9257C12.2572 17.193 12.0109 17.4168 11.7264 17.5826C11.442 17.7484 11.1258 17.8526 10.7985 17.8882L9.78906 17.9978C9.68641 18.0088 9.58358 17.9788 9.50296 17.9143C9.42235 17.8498 9.37049 17.756 9.35869 17.6535C9.14611 15.9276 8.53535 14.2748 7.57459 12.8255C6.9344 12.0724 6.23298 11.3735 5.47749 10.7362V0.673244C6.41958 0.220837 7.4529 -0.00938606 8.49794 0.000293732H14.085C14.368 0.000818253 14.6457 0.0781059 14.8883 0.223927C15.1309 0.369747 15.3294 0.57864 15.4627 0.82836C15.596 1.07808 15.6591 1.35928 15.6452 1.642C15.6313 1.92473 15.541 2.1984 15.3839 2.43387C15.6093 2.51291 15.8136 2.6425 15.9812 2.8127C16.1488 2.98289 16.2752 3.18919 16.3507 3.41578C16.4262 3.64237 16.4489 3.88324 16.4169 4.11994C16.385 4.35664 16.2993 4.5829 16.1664 4.78136C16.3918 4.86041 16.5961 4.98999 16.7637 5.16019C16.9313 5.33039 17.0577 5.53669 17.1332 5.76328C17.2087 5.98987 17.2314 6.23074 17.1994 6.46744C17.1675 6.70414 17.0818 6.93039 16.9489 7.12886C17.2556 7.23606 17.5213 7.43603 17.7092 7.70103C17.897 7.96603 17.9978 8.28293 17.9975 8.60778Z"/>
</mask>
<path d="M4.69499 0.978418C4.69499 0.84997 4.66969 0.722778 4.62054 0.604107C4.57138 0.485435 4.49934 0.377607 4.40851 0.286779C4.31768 0.195951 4.20985 0.123905 4.09118 0.074749C3.97251 0.0255947 3.84532 0.000293732 3.71687 0.000293732H0.978124C0.849675 0.000293732 0.722483 0.0255947 0.603812 0.074749C0.485141 0.123905 0.377313 0.195951 0.286486 0.286779C0.195659 0.377607 0.123611 0.485435 0.0744552 0.604107C0.0252999 0.722778 0 0.84997 0 0.978418V9.97716C0 10.2366 0.103052 10.4854 0.286486 10.6688C0.46992 10.8522 0.718709 10.9553 0.978124 10.9553H3.71687C3.96381 10.9579 4.20246 10.8663 4.3842 10.6991C4.56594 10.5319 4.67708 10.3017 4.69499 10.0554V0.978418ZM17.9975 8.60778C17.9975 9.02285 17.8326 9.42091 17.5391 9.7144C17.2456 10.0079 16.8475 10.1728 16.4325 10.1728H11.581C11.5477 10.1725 11.515 10.181 11.4861 10.1975C11.4573 10.214 11.4333 10.2379 11.4167 10.2667C11.3987 10.2961 11.3892 10.33 11.3892 10.3645C11.3892 10.399 11.3987 10.4328 11.4167 10.4623C12.0179 11.7672 12.4542 13.142 12.7156 14.5548L12.8252 15.0165C12.9027 15.3431 12.9093 15.6825 12.8445 16.0118C12.7797 16.3412 12.645 16.6529 12.4496 16.9257C12.2572 17.193 12.0109 17.4168 11.7264 17.5826C11.442 17.7484 11.1258 17.8526 10.7985 17.8882L9.78906 17.9978C9.68641 18.0088 9.58358 17.9788 9.50296 17.9143C9.42235 17.8498 9.37049 17.756 9.35869 17.6535C9.14611 15.9276 8.53535 14.2748 7.57459 12.8255C6.9344 12.0724 6.23298 11.3735 5.47749 10.7362V0.673244C6.41958 0.220837 7.4529 -0.00938606 8.49794 0.000293732H14.085C14.368 0.000818253 14.6457 0.0781059 14.8883 0.223927C15.1309 0.369747 15.3294 0.57864 15.4627 0.82836C15.596 1.07808 15.6591 1.35928 15.6452 1.642C15.6313 1.92473 15.541 2.1984 15.3839 2.43387C15.6093 2.51291 15.8136 2.6425 15.9812 2.8127C16.1488 2.98289 16.2752 3.18919 16.3507 3.41578C16.4262 3.64237 16.4489 3.88324 16.4169 4.11994C16.385 4.35664 16.2993 4.5829 16.1664 4.78136C16.3918 4.86041 16.5961 4.98999 16.7637 5.16019C16.9313 5.33039 17.0577 5.53669 17.1332 5.76328C17.2087 5.98987 17.2314 6.23074 17.1994 6.46744C17.1675 6.70414 17.0818 6.93039 16.9489 7.12886C17.2556 7.23606 17.5213 7.43603 17.7092 7.70103C17.897 7.96603 17.9978 8.28293 17.9975 8.60778Z" stroke="#DA1628" stroke-width="2" mask="url(#path-1-inside-1)"/>
</svg>
