<svg width="40" height="40" viewBox="0 0 40 40" fill="none" xmlns="http://www.w3.org/2000/svg">
<path d="M9.99539 0C8.62105 0 7.49658 1.125 7.49658 2.5V37.5C7.49658 38.875 8.62105 40 9.99539 40H34.9835C36.3579 40 37.4823 38.875 37.4823 37.5V10L27.4871 0H9.99539Z" fill="#E2E5E7"/>
<path d="M29.9856 10H37.4821L27.4868 0V7.5C27.4868 8.875 28.6113 10 29.9856 10Z" fill="#B0B7BD"/>
<path d="M37.4823 17.5L29.9858 10H37.4823V17.5Z" fill="#CAD1D8"/>
<path d="M32.4848 32.5C32.4848 33.1875 31.9225 33.75 31.2354 33.75H3.74843C3.06126 33.75 2.49902 33.1875 2.49902 32.5V20C2.49902 19.3125 3.06126 18.75 3.74843 18.75H31.2354C31.9225 18.75 32.4848 19.3125 32.4848 20V32.5Z" fill="#929292"/>
<path d="M7.94482 23.6838C7.94482 23.3538 8.2047 22.9938 8.62325 22.9938H10.9309C12.2303 22.9938 13.3997 23.8638 13.3997 25.5313C13.3997 27.1113 12.2303 27.9913 10.9309 27.9913H9.26295V29.3113C9.26295 29.7513 8.98308 30 8.62325 30C8.29341 30 7.94482 29.7513 7.94482 29.3113V23.6838ZM9.26295 24.2525V26.7425H10.9309C11.6006 26.7425 12.1303 26.1513 12.1303 25.5313C12.1303 24.8325 11.6006 24.2525 10.9309 24.2525H9.26295Z" fill="white"/>
<path d="M15.3562 30C15.0263 30 14.6665 29.82 14.6665 29.3813V23.7038C14.6665 23.345 15.0263 23.0838 15.3562 23.0838H17.6438C22.2092 23.0838 22.1092 30 17.7338 30H15.3562ZM15.9859 24.3038V28.7813H17.6438C20.3413 28.7813 20.4612 24.3038 17.6438 24.3038H15.9859Z" fill="white"/>
<path d="M23.7288 24.3838V25.9726H26.2763C26.6361 25.9726 26.996 26.3326 26.996 26.6813C26.996 27.0113 26.6361 27.2813 26.2763 27.2813H23.7288V29.3801C23.7288 29.7301 23.4801 29.9988 23.1303 29.9988C22.6905 29.9988 22.4219 29.7301 22.4219 29.3801V23.7026C22.4219 23.3438 22.6917 23.0826 23.1303 23.0826H26.6374C27.0772 23.0826 27.337 23.3438 27.337 23.7026C27.337 24.0226 27.0772 24.3826 26.6374 24.3826H23.7288V24.3838Z" fill="white"/>
<path d="M31.2353 33.75H7.49658V35H31.2353C31.9225 35 32.4847 34.4375 32.4847 33.75V32.5C32.4847 33.1875 31.9225 33.75 31.2353 33.75Z" fill="#CAD1D8"/>
</svg>
