<svg width="6" height="10" viewBox="0 0 6 10" fill="none" xmlns="http://www.w3.org/2000/svg">
<path fill-rule="evenodd" clip-rule="evenodd" d="M1.91357 2.98926C1.91357 3.81768 2.58515 4.48926 3.41357 4.48926C4.242 4.48926 4.91357 3.81768 4.91357 2.98926C4.91357 2.16083 4.242 1.48926 3.41357 1.48926C2.58515 1.48926 1.91357 2.16083 1.91357 2.98926ZM5.91357 2.98926C5.91357 4.19874 5.05469 5.20761 3.91357 5.43925L3.91357 7.98926V8.98926C3.91357 9.2654 3.68972 9.48926 3.41357 9.48926C3.13743 9.48926 2.91357 9.2654 2.91357 8.98926V8.48926H2.41357C2.13743 8.48926 1.91357 8.2654 1.91357 7.98926C1.91357 7.71312 2.13743 7.48926 2.41357 7.48926H2.91357L2.91357 5.43925C1.77245 5.20761 0.913574 4.19874 0.913574 2.98926C0.913574 1.60855 2.03286 0.489258 3.41357 0.489258C4.79429 0.489258 5.91357 1.60855 5.91357 2.98926Z" fill="#8D9498"/>
</svg>
