<svg width="11" height="11" viewBox="0 0 11 11" fill="none" xmlns="http://www.w3.org/2000/svg">
<path fill-rule="evenodd" clip-rule="evenodd" d="M6.44922 3.98926C6.44922 4.81768 7.12079 5.48926 7.94922 5.48926C8.77765 5.48926 9.44922 4.81768 9.44922 3.98926C9.44922 3.16083 8.77765 2.48926 7.94922 2.48926C7.12079 2.48926 6.44922 3.16083 6.44922 3.98926ZM10.4492 3.98926C10.4492 5.19874 9.59034 6.20761 8.44922 6.43925V8.98926V9.98926C8.44922 10.2654 8.22536 10.4893 7.94922 10.4893C7.67308 10.4893 7.44922 10.2654 7.44922 9.98926V9.48926H6.94922C6.67308 9.48926 6.44922 9.2654 6.44922 8.98926C6.44922 8.71312 6.67308 8.48926 6.94922 8.48926H7.44922V6.43925C6.3081 6.20761 5.44922 5.19874 5.44922 3.98926C5.44922 2.60855 6.56851 1.48926 7.94922 1.48926C9.32993 1.48926 10.4492 2.60855 10.4492 3.98926Z" fill="#8D9498"/>
<mask id="path-2-outside-1" maskUnits="userSpaceOnUse" x="0.449219" y="0.489258" width="7" height="11" fill="black">
<rect fill="white" x="0.449219" y="0.489258" width="7" height="11"/>
<path fill-rule="evenodd" clip-rule="evenodd" d="M2.44922 3.98926C2.44922 4.81768 3.12079 5.48926 3.94922 5.48926C4.77765 5.48926 5.44922 4.81768 5.44922 3.98926C5.44922 3.16083 4.77765 2.48926 3.94922 2.48926C3.12079 2.48926 2.44922 3.16083 2.44922 3.98926ZM6.44922 3.98926C6.44922 5.19874 5.59034 6.20761 4.44922 6.43925V8.98926V9.98926C4.44922 10.2654 4.22536 10.4893 3.94922 10.4893C3.67308 10.4893 3.44922 10.2654 3.44922 9.98926V9.48926H2.94922C2.67308 9.48926 2.44922 9.2654 2.44922 8.98926C2.44922 8.71312 2.67308 8.48926 2.94922 8.48926H3.44922V6.43925C2.3081 6.20761 1.44922 5.19874 1.44922 3.98926C1.44922 2.60855 2.56851 1.48926 3.94922 1.48926C5.32993 1.48926 6.44922 2.60855 6.44922 3.98926Z"/>
</mask>
<path fill-rule="evenodd" clip-rule="evenodd" d="M2.44922 3.98926C2.44922 4.81768 3.12079 5.48926 3.94922 5.48926C4.77765 5.48926 5.44922 4.81768 5.44922 3.98926C5.44922 3.16083 4.77765 2.48926 3.94922 2.48926C3.12079 2.48926 2.44922 3.16083 2.44922 3.98926ZM6.44922 3.98926C6.44922 5.19874 5.59034 6.20761 4.44922 6.43925V8.98926V9.98926C4.44922 10.2654 4.22536 10.4893 3.94922 10.4893C3.67308 10.4893 3.44922 10.2654 3.44922 9.98926V9.48926H2.94922C2.67308 9.48926 2.44922 9.2654 2.44922 8.98926C2.44922 8.71312 2.67308 8.48926 2.94922 8.48926H3.44922V6.43925C2.3081 6.20761 1.44922 5.19874 1.44922 3.98926C1.44922 2.60855 2.56851 1.48926 3.94922 1.48926C5.32993 1.48926 6.44922 2.60855 6.44922 3.98926Z" fill="#8D9498"/>
<path d="M4.44922 6.43925L4.34975 5.94924L3.94922 6.03055V6.43925H4.44922ZM3.44922 9.48926H3.94922V8.98926H3.44922V9.48926ZM3.44922 8.48926V8.98926H3.94922V8.48926H3.44922ZM3.44922 6.43925H3.94922V6.03055L3.54868 5.94924L3.44922 6.43925ZM3.94922 4.98926C3.39693 4.98926 2.94922 4.54154 2.94922 3.98926L1.94922 3.98926C1.94922 5.09383 2.84465 5.98926 3.94922 5.98926L3.94922 4.98926ZM4.94922 3.98926C4.94922 4.54154 4.5015 4.98926 3.94922 4.98926L3.94922 5.98926C5.05379 5.98926 5.94922 5.09383 5.94922 3.98926H4.94922ZM3.94922 2.98926C4.5015 2.98926 4.94922 3.43697 4.94922 3.98926H5.94922C5.94922 2.88469 5.05379 1.98926 3.94922 1.98926V2.98926ZM2.94922 3.98926C2.94922 3.43697 3.39693 2.98926 3.94922 2.98926V1.98926C2.84465 1.98926 1.94922 2.88469 1.94922 3.98926L2.94922 3.98926ZM4.54868 6.92926C5.91824 6.65125 6.94922 5.44121 6.94922 3.98926H5.94922C5.94922 4.95626 5.26244 5.76398 4.34975 5.94924L4.54868 6.92926ZM4.94922 8.98926V6.43925H3.94922V8.98926H4.94922ZM4.94922 9.98926V8.98926H3.94922V9.98926H4.94922ZM3.94922 10.9893C4.5015 10.9893 4.94922 10.5415 4.94922 9.98926H3.94922V10.9893ZM2.94922 9.98926C2.94922 10.5415 3.39693 10.9893 3.94922 10.9893V9.98926H2.94922ZM2.94922 9.48926V9.98926H3.94922V9.48926H2.94922ZM3.44922 8.98926H2.94922V9.98926H3.44922V8.98926ZM2.94922 8.98926H1.94922C1.94922 9.54154 2.39693 9.98926 2.94922 9.98926V8.98926ZM2.94922 8.98926V7.98926C2.39693 7.98926 1.94922 8.43697 1.94922 8.98926H2.94922ZM2.94922 8.98926H3.44922V7.98926H2.94922V8.98926ZM2.94922 6.43925V8.48926H3.94922V6.43925H2.94922ZM0.949219 3.98926C0.949219 5.44121 1.9802 6.65125 3.34975 6.92926L3.54868 5.94924C2.636 5.76398 1.94922 4.95626 1.94922 3.98926H0.949219ZM3.94922 0.989258C2.29236 0.989258 0.949219 2.3324 0.949219 3.98926H1.94922C1.94922 2.88469 2.84465 1.98926 3.94922 1.98926V0.989258ZM6.94922 3.98926C6.94922 2.3324 5.60607 0.989258 3.94922 0.989258V1.98926C5.05379 1.98926 5.94922 2.88469 5.94922 3.98926H6.94922Z" fill="white" mask="url(#path-2-outside-1)"/>
</svg>
