<svg width="40" height="40" viewBox="0 0 40 40" fill="none" xmlns="http://www.w3.org/2000/svg">
<path d="M9.99526 0C8.62091 0 7.49644 1.125 7.49644 2.5V37.5C7.49644 38.875 8.62091 40 9.99526 40H34.9834C36.3577 40 37.4822 38.875 37.4822 37.5V10L27.4869 0H9.99526Z" fill="#E2E5E7"/>
<path d="M29.9858 10H37.4822L27.4869 0V7.5C27.4869 8.875 28.6114 10 29.9858 10Z" fill="#B0B7BD"/>
<path d="M37.4822 17.5L29.9857 10H37.4822V17.5Z" fill="#CAD1D8"/>
<path d="M32.4846 32.5C32.4846 33.1875 31.9223 33.75 31.2352 33.75H3.74822C3.06104 33.75 2.49881 33.1875 2.49881 32.5V20C2.49881 19.3125 3.06104 18.75 3.74822 18.75H31.2352C31.9223 18.75 32.4846 19.3125 32.4846 20V32.5Z" fill="#F15642"/>
<path d="M7.94498 23.6838C7.94498 23.3538 8.20485 22.9938 8.6234 22.9938H10.9311C12.2304 22.9938 13.3999 23.8638 13.3999 25.5313C13.3999 27.1113 12.2304 27.9913 10.9311 27.9913H9.2631V29.3113C9.2631 29.7513 8.98323 30 8.6234 30C8.29356 30 7.94498 29.7513 7.94498 29.3113V23.6838ZM9.2631 24.2525V26.7425H10.9311C11.6007 26.7425 12.1305 26.1513 12.1305 25.5313C12.1305 24.8325 11.6007 24.2525 10.9311 24.2525H9.2631Z" fill="white"/>
<path d="M15.3565 30C15.0266 30 14.6668 29.82 14.6668 29.3813V23.7038C14.6668 23.345 15.0266 23.0838 15.3565 23.0838H17.6441C22.2094 23.0838 22.1095 30 17.7341 30H15.3565ZM15.9862 24.3038V28.7813H17.6441C20.3416 28.7813 20.4615 24.3038 17.6441 24.3038H15.9862Z" fill="white"/>
<path d="M23.7287 24.3838V25.9726H26.2763C26.6361 25.9726 26.9959 26.3326 26.9959 26.6813C26.9959 27.0113 26.6361 27.2813 26.2763 27.2813H23.7287V29.3801C23.7287 29.7301 23.4801 29.9988 23.1303 29.9988C22.6905 29.9988 22.4218 29.7301 22.4218 29.3801V23.7026C22.4218 23.3438 22.6917 23.0826 23.1303 23.0826H26.6373C27.0771 23.0826 27.337 23.3438 27.337 23.7026C27.337 24.0226 27.0771 24.3826 26.6373 24.3826H23.7287V24.3838Z" fill="white"/>
<path d="M31.2352 33.75H7.49644V35H31.2352C31.9223 35 32.4846 34.4375 32.4846 33.75V32.5C32.4846 33.1875 31.9223 33.75 31.2352 33.75Z" fill="#CAD1D8"/>
</svg>
