<svg width="18" height="18" viewBox="0 0 18 18" fill="none" xmlns="http://www.w3.org/2000/svg">
<mask id="path-1-inside-1" fill="white">
<path d="M4.69499 17.0216C4.69499 17.15 4.66969 17.2772 4.62054 17.3959C4.57138 17.5146 4.49934 17.6224 4.40851 17.7132C4.31768 17.804 4.20985 17.8761 4.09118 17.9253C3.97251 17.9744 3.84532 17.9997 3.71687 17.9997H0.978124C0.849675 17.9997 0.722483 17.9744 0.603812 17.9253C0.485141 17.8761 0.377313 17.804 0.286486 17.7132C0.195659 17.6224 0.123611 17.5146 0.0744552 17.3959C0.0252999 17.2772 0 17.15 0 17.0216V8.02284C0 7.76343 0.103052 7.51464 0.286486 7.33121C0.46992 7.14777 0.718709 7.04472 0.978124 7.04472H3.71687C3.96381 7.04208 4.20246 7.13369 4.3842 7.30089C4.56594 7.46809 4.67708 7.69829 4.69499 7.94459V17.0216ZM17.9975 9.39222C17.9975 8.97715 17.8326 8.57909 17.5391 8.2856C17.2456 7.9921 16.8475 7.82722 16.4325 7.82722H11.581C11.5477 7.82752 11.515 7.81898 11.4861 7.80248C11.4573 7.78598 11.4333 7.76212 11.4167 7.73332C11.3987 7.70386 11.3892 7.67002 11.3892 7.63551C11.3892 7.601 11.3987 7.56715 11.4167 7.53769C12.0179 6.23277 12.4542 4.85803 12.7156 3.44522L12.8252 2.98355C12.9027 2.65695 12.9093 2.31752 12.8445 1.98815C12.7797 1.65878 12.645 1.34714 12.4496 1.07425C12.2572 0.807007 12.0109 0.583208 11.7264 0.417392C11.442 0.251575 11.1258 0.147449 10.7985 0.111779L9.78906 0.00222871C9.68641 -0.00877168 9.58358 0.0212445 9.50296 0.0857362C9.42235 0.150228 9.37049 0.243968 9.35869 0.346528C9.14611 2.07237 8.53535 3.72518 7.57459 5.17455C6.9344 5.92764 6.23298 6.62645 5.47749 7.26382V17.3268C6.41958 17.7792 7.4529 18.0094 8.49794 17.9997H14.085C14.368 17.9992 14.6457 17.9219 14.8883 17.7761C15.1309 17.6303 15.3294 17.4214 15.4627 17.1716C15.596 16.9219 15.6591 16.6407 15.6452 16.358C15.6313 16.0753 15.541 15.8016 15.3839 15.5661C15.6093 15.4871 15.8136 15.3575 15.9812 15.1873C16.1488 15.0171 16.2752 14.8108 16.3507 14.5842C16.4262 14.3576 16.4489 14.1168 16.4169 13.8801C16.385 13.6434 16.2993 13.4171 16.1664 13.2186C16.3918 13.1396 16.5961 13.01 16.7637 12.8398C16.9313 12.6696 17.0577 12.4633 17.1332 12.2367C17.2087 12.0101 17.2314 11.7693 17.1994 11.5326C17.1675 11.2959 17.0818 11.0696 16.9489 10.8711C17.2556 10.7639 17.5213 10.564 17.7092 10.299C17.897 10.034 17.9978 9.71707 17.9975 9.39222Z"/>
</mask>
<path d="M4.69499 17.0216C4.69499 17.15 4.66969 17.2772 4.62054 17.3959C4.57138 17.5146 4.49934 17.6224 4.40851 17.7132C4.31768 17.804 4.20985 17.8761 4.09118 17.9253C3.97251 17.9744 3.84532 17.9997 3.71687 17.9997H0.978124C0.849675 17.9997 0.722483 17.9744 0.603812 17.9253C0.485141 17.8761 0.377313 17.804 0.286486 17.7132C0.195659 17.6224 0.123611 17.5146 0.0744552 17.3959C0.0252999 17.2772 0 17.15 0 17.0216V8.02284C0 7.76343 0.103052 7.51464 0.286486 7.33121C0.46992 7.14777 0.718709 7.04472 0.978124 7.04472H3.71687C3.96381 7.04208 4.20246 7.13369 4.3842 7.30089C4.56594 7.46809 4.67708 7.69829 4.69499 7.94459V17.0216ZM17.9975 9.39222C17.9975 8.97715 17.8326 8.57909 17.5391 8.2856C17.2456 7.9921 16.8475 7.82722 16.4325 7.82722H11.581C11.5477 7.82752 11.515 7.81898 11.4861 7.80248C11.4573 7.78598 11.4333 7.76212 11.4167 7.73332C11.3987 7.70386 11.3892 7.67002 11.3892 7.63551C11.3892 7.601 11.3987 7.56715 11.4167 7.53769C12.0179 6.23277 12.4542 4.85803 12.7156 3.44522L12.8252 2.98355C12.9027 2.65695 12.9093 2.31752 12.8445 1.98815C12.7797 1.65878 12.645 1.34714 12.4496 1.07425C12.2572 0.807007 12.0109 0.583208 11.7264 0.417392C11.442 0.251575 11.1258 0.147449 10.7985 0.111779L9.78906 0.00222871C9.68641 -0.00877168 9.58358 0.0212445 9.50296 0.0857362C9.42235 0.150228 9.37049 0.243968 9.35869 0.346528C9.14611 2.07237 8.53535 3.72518 7.57459 5.17455C6.9344 5.92764 6.23298 6.62645 5.47749 7.26382V17.3268C6.41958 17.7792 7.4529 18.0094 8.49794 17.9997H14.085C14.368 17.9992 14.6457 17.9219 14.8883 17.7761C15.1309 17.6303 15.3294 17.4214 15.4627 17.1716C15.596 16.9219 15.6591 16.6407 15.6452 16.358C15.6313 16.0753 15.541 15.8016 15.3839 15.5661C15.6093 15.4871 15.8136 15.3575 15.9812 15.1873C16.1488 15.0171 16.2752 14.8108 16.3507 14.5842C16.4262 14.3576 16.4489 14.1168 16.4169 13.8801C16.385 13.6434 16.2993 13.4171 16.1664 13.2186C16.3918 13.1396 16.5961 13.01 16.7637 12.8398C16.9313 12.6696 17.0577 12.4633 17.1332 12.2367C17.2087 12.0101 17.2314 11.7693 17.1994 11.5326C17.1675 11.2959 17.0818 11.0696 16.9489 10.8711C17.2556 10.7639 17.5213 10.564 17.7092 10.299C17.897 10.034 17.9978 9.71707 17.9975 9.39222Z" stroke="#01AF66" stroke-width="2" mask="url(#path-1-inside-1)"/>
</svg>
