<svg width="70" height="65" viewBox="0 0 70 65" fill="none" xmlns="http://www.w3.org/2000/svg">
<path d="M69.9217 11.286L66.8785 1.59162C66.6149 0.744376 65.7542 0.284499 64.9563 0.564424C64.885 0.589468 64.8153 0.620167 64.7482 0.656117L55.6185 5.50331C54.8664 5.90219 54.5611 6.87304 54.9368 7.67162C55.3124 8.4702 56.2267 8.79435 56.9788 8.39547L61.9515 5.75536C48.8655 31.1676 25.0003 47.3427 0 47.3427V50.5741C26.4428 50.5741 51.6409 33.3117 65.1393 6.28694L67.0306 12.3072C67.2962 13.1548 68.1587 13.6135 68.957 13.3315C69.7553 13.0496 70.1873 12.1337 69.9217 11.286Z" fill="white" fill-opacity="0.8"/>
<path d="M7.60813 54.9485H1.52163C0.681308 54.9485 0 55.6719 0 56.5642V63.0272C0 63.9195 0.681308 64.6429 1.52163 64.6429H7.60813C8.44845 64.6429 9.12976 63.9195 9.12976 63.0272V56.5642C9.12976 55.6719 8.44845 54.9485 7.60813 54.9485ZM6.08651 61.4114H3.04325V58.18H6.08651V61.4114Z" fill="white" fill-opacity="0.8"/>
<path d="M22.8249 51.7178H16.7384C15.8981 51.7178 15.2168 52.4412 15.2168 53.3335V63.0279C15.2168 63.9202 15.8981 64.6436 16.7384 64.6436H22.8249C23.6652 64.6436 24.3466 63.9202 24.3466 63.0279V53.3335C24.3466 52.4412 23.6652 51.7178 22.8249 51.7178ZM21.3033 61.4122H18.2601V54.9492H21.3033V61.4122Z" fill="white" fill-opacity="0.8"/>
<path d="M38.0408 45.2554H31.9542C31.1139 45.2554 30.4326 45.9788 30.4326 46.8711V63.0284C30.4326 63.9207 31.1139 64.6441 31.9542 64.6441H38.0408C38.8811 64.6441 39.5624 63.9207 39.5624 63.0284V46.8711C39.5624 45.9788 38.8811 45.2554 38.0408 45.2554ZM36.5191 61.4127H33.4759V48.4868H36.5191V61.4127Z" fill="white" fill-opacity="0.8"/>
<path d="M53.2575 35.5593H47.171C46.3307 35.5593 45.6494 36.2828 45.6494 37.1751V63.0268C45.6494 63.919 46.3307 64.6425 47.171 64.6425H53.2575C54.0979 64.6425 54.7792 63.919 54.7792 63.0268V37.1751C54.7792 36.2828 54.0979 35.5593 53.2575 35.5593ZM51.7359 61.411H48.6927V38.7908H51.7359V61.411Z" fill="white" fill-opacity="0.8"/>
<path d="M68.4721 17.7871H62.3856C61.5453 17.7871 60.864 18.5106 60.864 19.4028V63.0276C60.864 63.9199 61.5453 64.6433 62.3856 64.6433H68.4721C69.3125 64.6433 69.9938 63.9199 69.9938 63.0276V19.4028C69.9938 18.5106 69.3125 17.7871 68.4721 17.7871ZM66.9505 61.4119H63.9073V21.0186H66.9505V61.4119Z" fill="white" fill-opacity="0.8"/>
</svg>
