<svg width="19" height="18" viewBox="0 0 19 18" fill="none" xmlns="http://www.w3.org/2000/svg">
<path d="M18.5877 8.15759C18.9617 7.79719 19.0937 7.26825 18.9324 6.77655C18.7707 6.28485 18.3495 5.93385 17.8321 5.85937L13.2315 5.19838C13.0356 5.17016 12.8663 5.04865 12.7788 4.87296L10.722 0.750902C10.4911 0.287795 10.0224 0 9.5 0C8.97801 0 8.50928 0.287795 8.27834 0.750902L6.2212 4.87296C6.13369 5.04865 5.96401 5.17016 5.76807 5.19838L1.16755 5.85974C0.650507 5.93385 0.229338 6.28485 0.0676429 6.77655C-0.093672 7.26825 0.0383475 7.79719 0.412339 8.15759L3.74098 11.3659C3.88289 11.5028 3.94795 11.6999 3.91447 11.8925L3.12882 16.4232C3.04055 16.9322 3.24791 17.4366 3.6706 17.7406C4.09291 18.045 4.64267 18.0845 5.10569 17.8433L9.21998 15.7042C9.39537 15.6132 9.60463 15.6132 9.78002 15.7042L13.8947 17.8433C14.0956 17.9479 14.3132 17.9994 14.5297 17.9994C14.8108 17.9994 15.0909 17.9125 15.3298 17.7406C15.7525 17.4366 15.9598 16.9322 15.8716 16.4232L15.0855 11.8929C15.052 11.6999 15.1171 11.5032 15.259 11.3662L18.5877 8.15759ZM14.336 12.0201L15.1217 16.5503C15.1612 16.7783 15.0718 16.9961 14.8824 17.1323C14.6925 17.2681 14.4562 17.2847 14.2489 17.1778L10.1342 15.0383C9.93601 14.9356 9.71762 14.8837 9.5 14.8837C9.28238 14.8837 9.06437 14.9356 8.86577 15.0387L4.75186 17.1778C4.54375 17.2847 4.30749 17.2681 4.11802 17.1323C3.92855 16.9961 3.83952 16.7787 3.87871 16.5503L4.66436 12.0201C4.74007 11.5829 4.59359 11.1367 4.27248 10.8275L0.943461 7.61887C0.775678 7.4571 0.718609 7.22912 0.791277 7.00904C0.863565 6.78859 1.04504 6.63735 1.27674 6.60387L5.87688 5.94288C6.32088 5.8793 6.70476 5.60392 6.90298 5.2059L8.96013 1.08384C9.06361 0.876177 9.26564 0.752406 9.49962 0.752406C9.73398 0.752406 9.93563 0.876177 10.0395 1.08384L12.0966 5.2059C12.2949 5.60392 12.6784 5.8793 13.1224 5.94288L17.7229 6.60387C17.9546 6.63735 18.1361 6.78859 18.2083 7.00904C18.2806 7.22912 18.2239 7.4571 18.0562 7.61887L14.7275 10.8271C14.4064 11.1367 14.2599 11.5825 14.336 12.0201Z" fill="url(#paint0_linear)"/>
<path d="M14.336 12.0201L15.1217 16.5503C15.1612 16.7783 15.0718 16.9961 14.8824 17.1323C14.6925 17.2681 14.4562 17.2847 14.2489 17.1778L10.1342 15.0383C9.93601 14.9356 9.71762 14.8837 9.5 14.8837C9.28238 14.8837 9.06437 14.9356 8.86577 15.0387L4.75186 17.1778C4.54375 17.2847 4.30749 17.2681 4.11802 17.1323C3.92855 16.9961 3.83952 16.7787 3.87871 16.5503L4.66436 12.0201C4.74007 11.5829 4.59359 11.1367 4.27248 10.8275L0.943461 7.61887C0.775678 7.4571 0.718609 7.22912 0.791277 7.00904C0.863565 6.78859 1.04504 6.63735 1.27674 6.60387L5.87688 5.94288C6.32088 5.8793 6.70476 5.60392 6.90298 5.2059L8.96013 1.08384C9.06361 0.876177 9.26564 0.752406 9.49962 0.752406C9.73398 0.752406 9.93563 0.876177 10.0395 1.08384L12.0966 5.2059C12.2949 5.60392 12.6784 5.8793 13.1224 5.94288L17.7229 6.60387C17.9546 6.63735 18.1361 6.78859 18.2083 7.00904C18.2806 7.22912 18.2239 7.4571 18.0562 7.61887L14.7275 10.8271C14.4064 11.1367 14.2599 11.5825 14.336 12.0201Z" fill="url(#paint1_linear)"/>
<defs>
<linearGradient id="paint0_linear" x1="0" y1="0" x2="35.0459" y2="-0.556302" gradientUnits="userSpaceOnUse">
<stop stop-color="#F49135"/>
<stop offset="0.998516" stop-color="#FE6737"/>
</linearGradient>
<linearGradient id="paint1_linear" x1="0" y1="0" x2="35.0459" y2="-0.556302" gradientUnits="userSpaceOnUse">
<stop stop-color="#F49135"/>
<stop offset="0.998516" stop-color="#FE6737"/>
</linearGradient>
</defs>
</svg>
