<svg width="15" height="16" viewBox="0 0 15 16" fill="none" xmlns="http://www.w3.org/2000/svg">
<path d="M3.0282 10.9696C4.50769 12.7381 6.28867 14.1306 8.32141 15.1159C9.09534 15.4826 10.1304 15.9178 11.2835 15.9924C11.355 15.9955 11.4234 15.9986 11.4948 15.9986C12.2688 15.9986 12.8904 15.7313 13.397 15.1811C13.4064 15.1718 13.4137 15.1604 13.4223 15.1503C13.5994 14.9388 13.7999 14.7473 14.0093 14.544C14.1554 14.4041 14.3046 14.258 14.4476 14.1088C15.1096 13.4188 15.1096 12.5423 14.4414 11.8741L12.5734 10.0061C12.2563 9.67659 11.8771 9.50253 11.4793 9.50253C11.0815 9.50253 10.6992 9.67659 10.3728 10.0029L9.50588 10.8699C9.36085 11.0149 9.13581 11.0458 8.95236 10.954C8.82804 10.8919 8.71303 10.8328 8.61047 10.7676C7.5972 10.1242 6.67719 9.28496 5.79758 8.20643C5.65724 8.02879 5.53146 7.86015 5.41849 7.69736C5.02287 7.12727 5.19143 6.37475 5.67636 5.87841C5.7696 5.78206 5.86596 5.68571 5.96231 5.58935C6.29799 5.25367 6.47827 4.86515 6.47827 4.47042C6.47827 4.07568 6.3011 3.68716 5.96231 3.35148L5.03608 2.42524C4.92729 2.31646 4.82472 2.21078 4.71904 2.10199C4.51391 1.89064 4.29944 1.67307 4.08809 1.47725C3.76795 1.16333 3.39186 0.998596 2.99401 0.998596C2.59928 0.998596 2.22008 1.16333 1.88751 1.48036L0.725054 2.64281C0.302343 3.06553 0.0630146 3.57837 0.013284 4.17203C-0.0457711 4.91488 0.0909882 5.70436 0.445319 6.65856C0.989248 8.13494 1.8098 9.50564 3.0282 10.9696ZM0.771676 4.2373C0.808974 3.82392 0.96749 3.47891 1.26587 3.18053L2.42211 2.02429C2.60238 1.85023 2.80131 1.7601 2.99401 1.7601C3.18361 1.7601 3.37632 1.85023 3.55348 2.03051C3.76173 2.22321 3.95754 2.42524 4.1689 2.63971C4.27458 2.74849 4.38336 2.85728 4.49215 2.96917L5.41838 3.89541C5.61109 4.08811 5.71055 4.28393 5.71055 4.47663C5.71055 4.66934 5.61109 4.86515 5.41838 5.05786C5.32203 5.15421 5.22568 5.25367 5.12932 5.35003C4.84026 5.64219 4.56985 5.91882 4.27147 6.18301C4.26525 6.18923 4.26214 6.19234 4.25593 6.19855C3.99795 6.45653 4.03836 6.70208 4.10052 6.88857C4.10363 6.89789 4.10674 6.90411 4.10984 6.91343C4.34917 7.48844 4.68175 8.03548 5.20081 8.68819C6.13326 9.83821 7.11544 10.7303 8.19708 11.4172C8.33073 11.5042 8.47371 11.5726 8.60736 11.641C8.73168 11.7031 8.84669 11.7622 8.94925 11.8274C8.96169 11.8337 8.97101 11.8399 8.98344 11.8461C9.08601 11.8989 9.18548 11.9238 9.28494 11.9238C9.53359 11.9238 9.69521 11.7653 9.74805 11.7124L10.9105 10.55C11.0908 10.3697 11.2866 10.2734 11.4793 10.2734C11.7155 10.2734 11.9082 10.4194 12.0294 10.55L13.9037 12.4211C14.2766 12.7941 14.2735 13.1981 13.8943 13.5929C13.7638 13.7327 13.627 13.8664 13.481 14.0063C13.2634 14.2176 13.0365 14.4352 12.8314 14.6807C12.4739 15.0661 12.0481 15.2464 11.4979 15.2464C11.4451 15.2464 11.3892 15.2433 11.3363 15.2402C10.3168 15.1749 9.36886 14.7771 8.65709 14.4383C6.72381 13.5027 5.02675 12.1756 3.61875 10.4909C2.45941 9.09536 1.67926 7.79615 1.1633 6.40369C0.843164 5.54895 0.721945 4.86204 0.771676 4.2373Z" fill="url(#paint0_linear)"/>
<path d="M0.771676 4.2373C0.808974 3.82392 0.96749 3.47891 1.26587 3.18053L2.42211 2.02429C2.60238 1.85023 2.80131 1.7601 2.99401 1.7601C3.18361 1.7601 3.37632 1.85023 3.55348 2.03051C3.76173 2.22321 3.95754 2.42524 4.1689 2.63971C4.27458 2.74849 4.38336 2.85728 4.49215 2.96917L5.41838 3.89541C5.61109 4.08811 5.71055 4.28393 5.71055 4.47663C5.71055 4.66934 5.61109 4.86515 5.41838 5.05786C5.32203 5.15421 5.22568 5.25367 5.12932 5.35003C4.84026 5.64219 4.56985 5.91882 4.27147 6.18301L4.25593 6.19855C3.99795 6.45653 4.03836 6.70208 4.10052 6.88857C4.10363 6.89789 4.10674 6.90411 4.10984 6.91343C4.34917 7.48844 4.68175 8.03548 5.20081 8.68819C6.13326 9.83821 7.11544 10.7303 8.19708 11.4172C8.33073 11.5042 8.47371 11.5726 8.60736 11.641C8.73168 11.7031 8.84669 11.7622 8.94925 11.8274C8.96169 11.8337 8.97101 11.8399 8.98344 11.8461C9.08601 11.8989 9.18548 11.9238 9.28494 11.9238C9.53359 11.9238 9.69521 11.7653 9.74805 11.7124L10.9105 10.55C11.0908 10.3697 11.2866 10.2734 11.4793 10.2734C11.7155 10.2734 11.9082 10.4194 12.0294 10.55L13.9037 12.4211C14.2766 12.7941 14.2735 13.1981 13.8943 13.5929C13.7638 13.7327 13.627 13.8664 13.481 14.0063C13.2634 14.2176 13.0365 14.4352 12.8314 14.6807C12.4739 15.0661 12.0481 15.2464 11.4979 15.2464C11.4451 15.2464 11.3892 15.2433 11.3363 15.2402C10.3168 15.1749 9.36886 14.7771 8.65709 14.4383C6.72381 13.5027 5.02675 12.1756 3.61875 10.4909C2.45941 9.09536 1.67926 7.79615 1.1633 6.40369C0.843164 5.54895 0.721945 4.86204 0.771676 4.2373Z" fill="url(#paint1_linear)"/>
<defs>
<linearGradient id="paint0_linear" x1="-0.565171" y1="4.88262" x2="14.2853" y2="12.3006" gradientUnits="userSpaceOnUse">
<stop offset="0.0931615" stop-color="#F49135"/>
<stop offset="0.998516" stop-color="#FE6737"/>
</linearGradient>
<linearGradient id="paint1_linear" x1="-0.565171" y1="4.88262" x2="14.2853" y2="12.3006" gradientUnits="userSpaceOnUse">
<stop offset="0.0931615" stop-color="#F49135"/>
<stop offset="0.998516" stop-color="#FE6737"/>
</linearGradient>
</defs>
</svg>
