<svg height="512pt" viewBox="-24 0 512 512.152" width="512pt" xmlns="http://www.w3.org/2000/svg"><path d="m464.101562 502.566406v-270.558594c0-.214843-.113281-.390624-.128906-.609374-.023437-.308594.007813-.613282-.058594-.917969-.0625-.320313-.207031-.609375-.308593-.921875-.136719-.398438-.273438-.78125-.464844-1.152344-.144531-.277344-.25-.550781-.425781-.804688-.046875-.082031-.054688-.167968-.109375-.25-.136719-.183593-.34375-.28125-.488281-.457031-.289063-.335937-.578126-.628906-.921876-.917969-.167968-.152343-.261718-.351562-.457031-.488281l-44.589843-31.847656v-185.640625c0-4.425781-3.578126-8-8-8h-352c-4.425782 0-8 3.574219-8 8v185.609375l-44.097657 31.503906c-.152343.085938-.277343.199219-.421875.300781l-.097656.074219c-.0625.046875-.09375.121094-.160156.167969-.046875.039062-.09375.097656-.144532.136719-.445312.34375-.847656.695312-1.207031 1.136719-.136719.167968-.335937.246093-.457031.421874-.167969.234376-.199219.503907-.335938.753907-.277343.488281-.503906.964843-.671874 1.503906-.167969.511719-.253907 1.015625-.3125 1.550781-.03125.296875-.1679692.542969-.1679692.847656v272c0 .296876.1367192.542969.1679692.832032.058593.511718.152343 1 .304687 1.503906.167969.558594.402344 1.0625.679687 1.558594.128907.21875.152344.480468.304688.691406.105469.148438.28125.199219.394531.34375.558594.703125 1.230469 1.261719 2 1.742188.261719.167968.476563.382812.757813.511718 1.03125.496094 2.167968.816406 3.390625.816406h447.296875c.3125.039063.617187.144532.929687.144532 2.503907 0 4.984375-1.191406 6.542969-3.398438 1.304688-1.882812 1.679688-4.113281 1.257812-6.1875zm-399.9375-486.566406h336v246.121094l-8 5.710937v-219.832031c0-4.425781-3.574218-8-8-8-4.425781 0-8-3.585938-8-8 0-4.425781-3.574218-8-8-8h-272c-4.425781 0-8 3.574219-8 8 0 4.414062-3.585937 8-8 8-4.425781 0-8 3.574219-8 8v219.9375l-8-5.714844zm383.9375 472.59375-170.089843-119.5625 170.089843-121.488281zm-216.007812-106.425781-144.210938-103c.082032-.464844.28125-.886719.28125-1.382813v-223.257812c6.777344-2.414063 12.113282-7.742188 14.527344-14.519532h258.953125c2.414063 6.777344 7.75 12.113282 14.519531 14.519532v224.738281zm-45.769531-13.03125-170.257813 119.472656v-241.074219zm13.808593 9.855469 27.3125 19.503906c.222657.167968.480469.222656.710938.359375.253906.152343.503906.273437.769531.382812 1.015625.457031 2.078125.761719 3.148438.761719h.011719.007812c1.078125 0 2.140625-.304688 3.167969-.761719.253906-.109375.484375-.222656.734375-.367187.238281-.144532.503906-.199219.742187-.375l27.457031-19.609375 166.609376 117.113281h-397.402344zm242.214844-147-26.175781 18.695312v-37.390625zm-394.183594 18.808593-26.273437-18.769531 26.273437-18.757812zm0 0"/><path d="m176.179688 184.023438h112c4.425781 0 8-3.574219 8-8v-56c0-.246094-.121094-.457032-.144532-.695313-.046875-.550781-.160156-1.0625-.320312-1.601563-.167969-.519531-.351563-1-.605469-1.46875-.121094-.21875-.136719-.464843-.273437-.671874-.152344-.21875-.375-.339844-.527344-.53125-.359375-.4375-.746094-.816407-1.175782-1.167969-.394531-.3125-.785156-.582031-1.207031-.816407-.457031-.238281-.90625-.414062-1.402343-.574218-.527344-.167969-1.054688-.273438-1.609376-.328125-.246093-.023438-.46875-.144531-.726562-.144531-.238281 0-.457031.121093-.695312.144531-.542969.046875-1.070313.160156-1.609376.328125-.519531.160156-1 .34375-1.472656.609375-.207031.117187-.453125.132812-.664062.269531l-17.878906 11.9375-27.4375-34.28125c-.1875-.230469-.457032-.34375-.65625-.550781-.21875-.214844-.335938-.496094-.585938-.695313-.191406-.160156-.441406-.191406-.640625-.335937-.460937-.304688-.925781-.539063-1.429687-.738281-.464844-.183594-.90625-.34375-1.386719-.4375-.527344-.105469-1.046875-.128907-1.589844-.128907-.480469.007813-.929687.023438-1.402344.121094-.527343.09375-1.015625.261719-1.519531.46875-.488281.203125-.933594.425781-1.375.714844-.207031.136719-.449219.175781-.648438.335937-.230468.183594-.34375.453125-.558593.664063-.214844.214843-.496094.335937-.6875.574219l-27.417969 34.273437-17.886719-11.929687c-.207031-.144532-.457031-.160157-.664062-.269532-.480469-.265625-.96875-.449218-1.496094-.609375-.527344-.167969-1.046875-.273437-1.59375-.320312-.238281-.023438-.445313-.144531-.6875-.144531-.253906 0-.472656.121093-.726563.144531-.570312.054687-1.105468.160156-1.65625.335937-.464843.144532-.894531.320313-1.320312.542969-.464844.242187-.871094.527344-1.28125.863281-.421875.347656-.78125.707032-1.125 1.128906-.167969.199219-.394531.320313-.546875.546876-.144531.207031-.160156.453124-.277344.671874-.257812.46875-.449219.949219-.601562 1.46875-.167969.539063-.28125 1.058594-.328125 1.609376-.039063.238281-.160156.441406-.160156.6875v56c0 4.425781 3.578124 8 8 8zm19.558593-41.34375c.386719.257812.808594.382812 1.21875.566406.269531.121094.519531.28125.800781.371094.789063.253906 1.605469.40625 2.421876.40625 1.105468 0 2.175781-.269532 3.183593-.710938.105469-.046875.207031-.066406.320313-.121094.953125-.464844 1.785156-1.144531 2.503906-1.976562.074219-.085938.175781-.109375.25-.199219l25.757812-32.191406 25.777344 32.191406c.0625.074219.152344.097656.207032.167969.726562.839844 1.566406 1.527344 2.519531 2 .113281.054687.226562.082031.34375.128906 1.007812.429688 2.074219.703125 3.167969.703125.824218 0 1.632812-.152344 2.433593-.40625.261719-.089844.503907-.242187.757813-.351563.425781-.1875.851562-.328124 1.242187-.585937l11.535157-7.695313v33.046876h-96v-33.046876zm0 0"/><path d="m312.164062 216h-160c-4.425781 0-8 3.574219-8 8s3.574219 8 8 8h160c4.425782 0 8-3.574219 8-8s-3.574218-8-8-8zm0 0"/><path d="m312.164062 248.007812h-160c-4.425781 0-8 3.578126-8 8 0 4.425782 3.574219 8 8 8h160c4.425782 0 8-3.574218 8-8 0-4.421874-3.574218-8-8-8zm0 0"/><path d="m264.179688 280.015625h-64.03125c-4.425782 0-8 3.570313-8 8 0 4.425781 3.574218 8 8 8h64.03125c4.425781 0 8-3.574219 8-8 0-4.429687-3.574219-8-8-8zm0 0"/></svg>