<?xml version="1.0"?>
<svg xmlns="http://www.w3.org/2000/svg" id="Layer_1" data-name="Layer 1" viewBox="0 0 512 512" width="512" height="512"><title>Password</title><path d="M475.652,88H320V72.719A5.894,5.894,0,0,0,313.854,67H304V50.558A48.5,48.5,0,0,0,289.658,15.8,46.993,46.993,0,0,0,256.363,2h-.3C229.5,2,208,23.784,208,50.558V67h-9.854A5.894,5.894,0,0,0,192,72.719V88H36.348A6.469,6.469,0,0,0,30,94.188V424.849A6.436,6.436,0,0,0,36.348,431H169v29H128.229A6.007,6.007,0,0,0,122,465.767V504a6.2,6.2,0,0,0,6.229,6H383.771A6.2,6.2,0,0,0,390,504V465.767A6.007,6.007,0,0,0,383.771,460H343V431H475.652A6.436,6.436,0,0,0,482,424.849V94.188A6.469,6.469,0,0,0,475.652,88ZM198.146,171H313.854A6.219,6.219,0,0,0,320,164.892V150h99V369H93V150h99v14.892A6.219,6.219,0,0,0,198.146,171ZM220,50.558A36.345,36.345,0,0,1,256.133,14h.262a34.965,34.965,0,0,1,24.834,10.323A36.565,36.565,0,0,1,292,50.558V67H220ZM204,79H308v80H204ZM378,498H134V472H378Zm-47-38H181V431H331Zm139-41H42V100H192v38H86.51C83.2,138,81,141.037,81,144.35V374.687C81,378,83.2,381,86.51,381H425.49c3.314,0,5.51-3,5.51-6.313V144.35c0-3.313-2.2-6.35-5.51-6.35H320V100H470Z"/><path d="M255,137.552a6,6,0,0,0,6-6V117.825a6,6,0,1,0-12,0v13.727A6,6,0,0,0,255,137.552Z"/><path d="M379,192a6,6,0,0,0-6-6H139a6,6,0,0,0-6,6v86a6,6,0,0,0,6,6H373a6,6,0,0,0,6-6Zm-234,6H368v74H145Z"/><path d="M274.2,216.853a6,6,0,0,0-8.484,0L256,226.572l-9.719-9.719a6,6,0,0,0-8.484,8.485l9.718,9.719-9.22,9.22a6,6,0,1,0,8.484,8.485l9.221-9.22,9.221,9.22a6,6,0,0,0,8.484-8.485l-9.22-9.22,9.718-9.719A6,6,0,0,0,274.2,216.853Z"/><path d="M217.792,216.853a6,6,0,0,0-8.484,0l-9.719,9.718-9.718-9.718a6,6,0,0,0-8.486,8.485l9.719,9.719-9.22,9.22a6,6,0,1,0,8.484,8.485l9.22-9.22,9.22,9.22a6,6,0,0,0,8.486-8.485l-9.22-9.221,9.718-9.718A6,6,0,0,0,217.792,216.853Z"/><path d="M330.614,216.853a6,6,0,0,0-8.485,0l-9.718,9.718-9.719-9.718a6,6,0,0,0-8.484,8.485l9.718,9.718-9.22,9.221a6,6,0,1,0,8.486,8.485l9.22-9.22,9.22,9.22a6,6,0,1,0,8.484-8.485l-9.22-9.22,9.719-9.719A6,6,0,0,0,330.614,216.853Z"/></svg>
