<svg id="Capa_1" enable-background="new 0 0 480.425 480.425" height="512" viewBox="0 0 480.425 480.425" width="512" xmlns="http://www.w3.org/2000/svg"><path d="m434 250.549v-37.933c-.072-.946-.359-1.864-.839-2.683l-6.161-11.911v-12.534l17.524-13.729c2.614-2.025 3.092-5.787 1.066-8.401-.103-.133-.212-.262-.326-.386l-16.1-17.443 16.206-18.451c2.173-2.474 1.946-6.237-.508-8.432l-36.238-32.4c-2.093-1.87-5.202-2.04-7.486-.409l-22.838 16.476c-1.522 1.151-2.382 2.976-2.3 4.882v143.353c-38.484 15.988-56.72 60.147-40.732 98.631 15.989 38.484 60.147 56.72 98.631 40.732s56.72-60.147 40.732-98.631c-3.78-9.1-9.307-17.37-16.266-24.346-6.944-7.036-15.229-12.608-24.365-16.385zm-46-140.266 16.426-11.882 28.117 25.232-15.9 18.042c-2.034 2.301-2.002 5.766.073 8.029l15.346 16.638-14.715 11.517c-1.46 1.131-2.325 2.866-2.347 4.713v16.866c.072.947.359 1.864.839 2.683l6.161 11.912v32.692c-11.187-2.575-22.813-2.575-34 0zm61.721 255.318c-24.904 24.901-65.279 24.9-90.18-.004s-24.9-65.279.004-90.18 65.279-24.9 90.18.004c11.958 11.959 18.675 28.178 18.675 45.089.046 16.922-6.68 33.159-18.679 45.091z"/><path d="m404.63 302.99c-15.133 0-27.4 12.267-27.4 27.4s12.267 27.4 27.4 27.4 27.4-12.267 27.4-27.4c-.019-15.124-12.275-27.381-27.4-27.4zm0 42.807c-8.505 0-15.4-6.895-15.4-15.4s6.895-15.4 15.4-15.4 15.4 6.895 15.4 15.4c-.009 8.502-6.898 15.393-15.4 15.404z"/><path d="m360 111.501c0-3.314-2.686-6-6-6h-348c-3.314 0-6 2.686-6 6v130c0 3.314 2.686 6 6 6h348c3.314 0 6-2.686 6-6zm-13 124h-335v-118h335z"/><path d="m109.993 177.086-7.981 7.982c-2.362 2.324-2.393 6.123-.069 8.485s6.123 2.393 8.485.069c.023-.023.046-.046.069-.069l7.982-7.981 7.981 7.981c2.343 2.343 6.142 2.344 8.485 0 2.343-2.343 2.344-6.142.001-8.485l-7.982-7.982 8.7-8.7c2.343-2.343 2.343-6.143 0-8.486s-6.143-2.343-8.486 0l-8.7 8.7-8.7-8.7c-2.343-2.343-6.142-2.343-8.485.001-2.343 2.343-2.343 6.142 0 8.485z"/><path d="m48.979 177.086-7.979 7.982c-2.343 2.343-2.343 6.142 0 8.486 2.343 2.343 6.142 2.343 8.486-.001l7.981-7.981 7.982 7.981c2.324 2.362 6.123 2.393 8.485.069s2.393-6.123.069-8.485c-.023-.023-.046-.046-.069-.069l-7.982-7.982 8.7-8.7c2.343-2.343 2.344-6.142 0-8.485-2.343-2.343-6.142-2.344-8.485-.001l-8.7 8.7-8.7-8.7c-2.343-2.343-6.142-2.343-8.485.001-2.343 2.343-2.343 6.142 0 8.485z"/><path d="m171.008 177.086-7.981 7.982c-2.362 2.324-2.393 6.123-.069 8.485s6.123 2.393 8.485.069c.023-.023.046-.046.069-.069l7.982-7.981 7.981 7.981c2.324 2.362 6.123 2.393 8.485.069s2.393-6.123.069-8.485c-.023-.023-.046-.046-.069-.069l-7.981-7.982 8.7-8.7c2.343-2.343 2.344-6.142 0-8.485-2.343-2.343-6.142-2.344-8.485-.001l-8.7 8.7-8.7-8.7c-2.343-2.343-6.142-2.343-8.485.001-2.343 2.343-2.343 6.142 0 8.485z"/><path d="m232.023 177.086-7.981 7.982c-2.362 2.324-2.393 6.123-.069 8.485s6.123 2.393 8.485.069c.023-.023.046-.046.069-.069l7.982-7.981 7.981 7.981c2.324 2.362 6.123 2.394 8.485.07s2.394-6.123.07-8.485c-.023-.024-.046-.047-.07-.07l-7.981-7.982 8.7-8.7c2.343-2.343 2.344-6.142.001-8.485s-6.142-2.344-8.486-.001l-8.7 8.7-8.7-8.7c-2.343-2.343-6.142-2.343-8.485.001-2.343 2.343-2.343 6.142 0 8.485z"/><path d="m293.038 177.086-7.982 7.982c-2.343 2.343-2.343 6.142 0 8.485s6.142 2.343 8.486 0l7.981-7.981 7.982 7.981c2.324 2.362 6.123 2.394 8.485.07s2.394-6.123.07-8.485c-.023-.024-.046-.047-.07-.07l-7.981-7.982 8.7-8.7c2.343-2.343 2.344-6.142.001-8.485s-6.142-2.344-8.486-.001l-8.7 8.7-8.7-8.7c-2.343-2.343-6.143-2.343-8.486 0s-2.343 6.143 0 8.486z"/></svg>